<?xml version="1.0" encoding="UTF-8"?>
<svg version="1.1" xmlns="http://www.w3.org/2000/svg" width="952" height="784">
<path d="M0 0 C1.03898438 -0.02900391 2.07796875 -0.05800781 3.1484375 -0.08789062 C11.67281511 -0.15697847 19.58629694 1.16452145 26.375 6.625 C27.07625 7.511875 27.7775 8.39875 28.5 9.3125 C29.345625 10.240625 30.19125 11.16875 31.0625 12.125 C39.27001209 24.09861732 38.75992912 41.56926304 36.375 55.125 C33.62147838 69.00465027 28.65453065 81.78368986 22.0390625 94.25 C20.35032128 97.03909118 20.35032128 97.03909118 20.5 99.3125 C22.84324335 101.03797919 25.19513044 102.65457808 27.625 104.25 C42.1928524 114.0428611 56.68614681 125.04257817 68.89453125 137.703125 C70.68954319 139.50250437 72.57403915 141.15433942 74.5 142.8125 C80.2325965 147.77191393 85.43997868 153.10138141 90.375 158.8515625 C92.02369962 160.76090213 93.69062409 162.64596928 95.375 164.5234375 C103.79713303 173.97751107 111.28421431 183.91523033 118.5 194.3125 C118.9444043 194.94623535 119.38880859 195.5799707 119.84667969 196.23291016 C148.88224116 237.7776432 167.27223097 285.44372149 175.5 335.3125 C175.66516113 336.24819824 175.83032227 337.18389648 176.00048828 338.14794922 C181.52262347 370.36135625 181.27272626 407.15765747 175.5 439.3125 C175.32355957 440.30765625 175.14711914 441.3028125 174.96533203 442.328125 C173.99264655 447.72109709 172.9589013 453.09647549 171.81958008 458.45678711 C171.41514206 460.49140819 171.41514206 460.49140819 171.5 463.3125 C174.08297326 465.15994352 174.08297326 465.15994352 177.375 466.9375 C194.6426875 477.06115583 206.87068506 493.00935807 212.4375 512.25 C212.82413129 513.93035905 213.18190658 515.61782987 213.5 517.3125 C213.62890625 517.98539063 213.7578125 518.65828125 213.890625 519.3515625 C218.10643548 548.08563918 209.47109268 576.58680682 192.4609375 599.79296875 C173.59787341 624.0293758 150.2085306 641.21582084 121.5 652.3125 C120.81728027 652.57659668 120.13456055 652.84069336 119.43115234 653.11279297 C101.66388278 659.7708868 82.21927297 663.55695662 63.234375 663.38671875 C62.06668076 663.37702812 62.06668076 663.37702812 60.87539673 663.36714172 C60.09683319 663.36030869 59.31826965 663.35347565 58.51611328 663.34643555 C42.43222607 663.21205244 31.83485167 664.50038547 19.40722656 675.67480469 C16.51517868 678.15814534 13.35929761 680.04364171 10.0625 681.9375 C9.4653418 682.28820557 8.86818359 682.63891113 8.25292969 683.00024414 C6.34195881 684.11633029 4.42203685 685.21558938 2.5 686.3125 C1.39350098 686.94986084 1.39350098 686.94986084 0.26464844 687.60009766 C-24.88261287 702.02111276 -51.62074711 713.32698535 -79.5 721.3125 C-80.32145508 721.5506543 -81.14291016 721.78880859 -81.98925781 722.03417969 C-111.80445105 730.62278409 -142.83986309 736.38851083 -173.9375 736.515625 C-175.66390465 736.52607849 -175.66390465 736.52607849 -177.42518616 736.53674316 C-181.11682839 736.55403751 -184.80831895 736.56046223 -188.5 736.5625 C-190.38765579 736.56401062 -190.38765579 736.56401062 -192.31344604 736.56555176 C-210.25985031 736.55581516 -227.75466184 736.17196758 -245.5 733.3125 C-247.42574722 733.03101707 -249.35152855 732.74976745 -251.27734375 732.46875 C-271.97629354 729.28497235 -292.70976759 724.17224754 -312.5 717.3125 C-313.73943359 716.88565918 -313.73943359 716.88565918 -315.00390625 716.45019531 C-327.05495876 712.26700622 -338.82008766 707.66311155 -350.38818359 702.28613281 C-352.43332526 701.34323975 -354.48947686 700.43035144 -356.55078125 699.5234375 C-382.72847723 687.84090756 -407.49118535 671.63908317 -429.5 653.3125 C-430.40468018 652.56009033 -430.40468018 652.56009033 -431.32763672 651.79248047 C-437.40808487 646.70944606 -443.41443691 641.61096422 -448.91796875 635.8984375 C-451.38960286 633.42070059 -454.05488179 631.17285965 -456.69921875 628.8828125 C-458.73612913 627.1065913 -460.70303878 625.33408138 -462.5 623.3125 C-462.5 622.6525 -462.5 621.9925 -462.5 621.3125 C-463.16 621.3125 -463.82 621.3125 -464.5 621.3125 C-465.76953125 620.08984375 -465.76953125 620.08984375 -467.3125 618.25 C-469.63242475 615.50827075 -471.96225401 612.78369263 -474.359375 610.109375 C-516.90742517 562.3720533 -544.12798426 502.17762824 -554.5 439.3125 C-554.66516113 438.37680176 -554.83032227 437.44110352 -555.00048828 436.47705078 C-560.53441934 404.19483245 -560.16555665 367.54371797 -554.5 335.3125 C-554.25056641 333.77625977 -554.25056641 333.77625977 -553.99609375 332.20898438 C-545.63724371 281.09616431 -525.11526186 230.76426522 -493.77734375 189.35546875 C-493.16802002 188.54271484 -492.55869629 187.72996094 -491.9309082 186.89257812 C-490.74968836 185.32762552 -489.55211949 183.77484668 -488.33666992 182.23632812 C-486.87380618 180.30033499 -485.56046259 178.49493142 -484.5 176.3125 C-484.78997121 173.50673245 -484.78997121 173.50673245 -486.5 171.3125 C-486.93957031 170.61511719 -487.37914062 169.91773438 -487.83203125 169.19921875 C-488.56486328 168.11060547 -488.56486328 168.11060547 -489.3125 167 C-499.92270113 149.73241777 -500.86962956 126.81036484 -497.4375 107.3125 C-489.96257392 76.2898021 -468.28715224 53.25534771 -442.27734375 36.19921875 C-422.03706781 23.92716809 -399.61127293 17.29621596 -376.625 12.5625 C-375.602854 12.35133545 -374.58070801 12.1401709 -373.52758789 11.92260742 C-372.53106201 11.72642822 -371.53453613 11.53024902 -370.5078125 11.328125 C-369.63785645 11.15571289 -368.76790039 10.98330078 -367.87158203 10.80566406 C-358.24250792 9.39721151 -348.62363958 9.15363564 -338.90625 9.14453125 C-337.00522522 9.13953865 -337.00522522 9.13953865 -335.0657959 9.13444519 C-332.39669248 9.12941073 -329.72769108 9.12659959 -327.05859375 9.12719727 C-324.36711861 9.12727817 -321.67581498 9.12038447 -318.984375 9.10668945 C-299.22743572 9.0134735 -279.84255998 9.40830329 -260.4375 13.4375 C-259.40858643 13.64850342 -258.37967285 13.85950684 -257.31958008 14.0769043 C-237.64997814 18.27986134 -215.79087997 23.50826767 -198.19335938 33.640625 C-191.12635644 37.65116345 -185.15473936 37.97499168 -177.125 37.9375 C-144.35585049 38.44605175 -113.11265041 44.33171267 -81.52661133 52.52807617 C-79.18700415 53.13444528 -76.84603802 53.73166901 -74.5 54.3125 C-73.50033203 53.00539063 -73.50033203 53.00539063 -72.48046875 51.671875 C-66.18307202 43.50580428 -59.61569536 35.77381485 -52.5 28.3125 C-51.63890625 27.38695313 -50.7778125 26.46140625 -49.890625 25.5078125 C-35.95613173 10.95492456 -20.6763395 0.18683439 0 0 Z M-24.5625 29.625 C-26.21795045 31.17730712 -27.8640408 32.73966463 -29.5 34.3125 C-30.23992188 35.00085938 -30.97984375 35.68921875 -31.7421875 36.3984375 C-38.40907222 42.7806154 -43.93127514 49.98186711 -49.5 57.3125 C-50.10070312 58.06917969 -50.70140625 58.82585937 -51.3203125 59.60546875 C-52.68950818 61.24088904 -52.68950818 61.24088904 -52.5 63.3125 C-50.73462891 63.98732422 -50.73462891 63.98732422 -48.93359375 64.67578125 C-28.54495657 72.58269132 -9.22357693 82.01717996 9.5 93.3125 C12.83295795 90.24848895 14.27197848 86.69742988 15.9375 82.5625 C16.24316895 81.8111377 16.54883789 81.05977539 16.86376953 80.28564453 C23.25322244 64.16471962 27.97715054 45.3628387 22.5 28.3125 C19.7602142 23.21082989 16.76712281 19.41787655 11.15625 17.51953125 C-2.79431247 14.21228584 -14.33187537 20.59241461 -24.5625 29.625 Z M-459.2578125 72.62109375 C-474.61097767 91.05024149 -481.31230203 112.49838058 -479.5 136.3125 C-478.22900962 145.08252025 -475.45874639 153.39500722 -471.5 161.3125 C-467.76485239 158.26339991 -464.36557293 155.27489677 -461.26171875 151.58203125 C-457.54099703 147.27820027 -453.53680561 143.37368061 -449.375 139.5 C-448.63072754 138.80495361 -447.88645508 138.10990723 -447.11962891 137.39379883 C-437.62605731 128.58154019 -427.96444772 120.33104822 -417.25927734 113.0144043 C-413.76682131 110.70672796 -413.76682131 110.70672796 -411.81738281 107.16186523 C-411.71264648 106.55157471 -411.60791016 105.94128418 -411.5 105.3125 C-410.53964844 105.10238281 -409.57929688 104.89226562 -408.58984375 104.67578125 C-403.53121067 103.22267528 -399.43986418 100.34605424 -395.0625 97.5 C-370.80487437 82.13949338 -345.44480901 70.11061237 -318.5 60.3125 C-317.80922363 60.05404297 -317.11844727 59.79558594 -316.40673828 59.52929688 C-289.1282293 49.36339291 -260.34630658 44.05344279 -231.55053711 40.56231689 C-228.59141578 40.2018072 -225.63375873 39.82981782 -222.67596436 39.45860291 C-219.61752717 39.07481831 -216.55876057 38.69369765 -213.5 38.3125 C-217.54113568 35.61840955 -221.64253483 34.72138763 -226.3125 33.5 C-227.30773682 33.23936768 -228.30297363 32.97873535 -229.32836914 32.71020508 C-242.54034552 29.38575805 -256.02458327 27.26321749 -269.5 25.3125 C-270.66805176 25.13146729 -271.83610352 24.95043457 -273.03955078 24.76391602 C-279.13403261 24.02174308 -285.27189539 24.12972616 -291.40234375 24.109375 C-292.06988741 24.10654762 -292.73743107 24.10372025 -293.42520332 24.10080719 C-296.97479764 24.0858643 -300.524352 24.07661027 -304.07397461 24.07226562 C-306.95268745 24.06792549 -309.83109303 24.05420303 -312.7097168 24.03125 C-364.48014513 23.62712986 -421.79604194 33.33038152 -459.2578125 72.62109375 Z M165.5 481.3125 C165.21390869 482.1468457 164.92781738 482.98119141 164.63305664 483.84082031 C158.95224553 500.33093682 153.23806136 516.65049592 145.5 532.3125 C145.02868652 533.27285156 144.55737305 534.23320313 144.07177734 535.22265625 C133.26535492 557.06329538 120.73886392 577.29648177 105.5 596.3125 C104.69949219 597.32570313 103.89898438 598.33890625 103.07421875 599.3828125 C98.60126324 604.96010338 93.88671339 610.26075519 88.95263672 615.4309082 C86.29210494 617.94107121 86.29210494 617.94107121 85.5 621.3125 C84.84 621.3125 84.18 621.3125 83.5 621.3125 C82.13833904 622.6987779 82.13833904 622.6987779 80.6875 624.5625 C76.85149979 629.09301814 72.59808582 633.03251501 68.20776367 637.01074219 C64.87776944 640.0284398 61.65154143 643.10823762 58.5 646.3125 C94.14142338 647.46222333 128.57578954 636.09227712 155.5 612.3125 C156.47582031 611.48105469 157.45164062 610.64960937 158.45703125 609.79296875 C176.73760527 593.94117938 192.47010576 570.68599619 194.8034668 546.1171875 C194.93548598 542.86352143 194.9676405 539.6311387 194.9375 536.375 C194.93065186 535.23417969 194.92380371 534.09335937 194.91674805 532.91796875 C194.75989114 524.70266175 193.95326756 517.85100565 190.5 510.3125 C190.12617187 509.43078125 189.75234375 508.5490625 189.3671875 507.640625 C184.66249551 497.35884781 177.36548687 489.25609811 168.5 482.3125 C167.51 481.9825 166.52 481.6525 165.5 481.3125 Z " fill="#010101" transform="translate(665.5,25.6875)"/>
<path d="M0 0 C5.45134885 0.38707802 9.08347146 3.60353047 13.3125 6.75 C14.10140625 7.32911133 14.8903125 7.90822266 15.703125 8.50488281 C27.29110408 17.08462252 38.43104059 26.19048678 49 36 C50.16111795 37.05766547 51.32260473 38.11492611 52.484375 39.171875 C64.62534703 50.28240928 75.84407692 62.03321188 86 75 C86.48968262 75.62245605 86.97936523 76.24491211 87.48388672 76.88623047 C95.12615787 86.62902248 102.37087459 96.5392062 109 107 C109.54769043 107.85996582 109.54769043 107.85996582 110.10644531 108.73730469 C133.94444608 146.47189783 149.40334832 188.01709103 157.25 231.875 C157.40122314 232.71643555 157.55244629 233.55787109 157.70825195 234.42480469 C160.68798404 252.11812071 161.37137691 269.6439175 161.3125 287.5625 C161.30976578 289.2872052 161.30976578 289.2872052 161.30697632 291.04675293 C161.23996137 316.13173546 158.62265997 339.52724736 153 364 C143.92175232 361.31776506 143.92175232 361.31776506 139.91796875 359.9375 C129.86587794 356.48613835 119.51793901 355.23692825 109 354 C107.79162476 353.85425537 107.79162476 353.85425537 106.55883789 353.70556641 C87.65327318 351.59969708 68.6976661 352.81321307 50 356 C49.19046875 356.13390137 48.3809375 356.26780273 47.546875 356.40576172 C27.75023122 359.78577644 8.55523471 366.24709183 -9 376 C-10.09699219 376.58652344 -11.19398438 377.17304688 -12.32421875 377.77734375 C-23.75907148 383.89904672 -23.75907148 383.89904672 -31 394 C-24.0189447 391.42257884 -17.15547261 388.65888935 -10.33666992 385.68237305 C-1.02433998 381.62190542 8.20750017 377.76801328 18 375 C18.74588379 374.78891602 19.49176758 374.57783203 20.26025391 374.36035156 C52.29359258 365.54098482 90.57707623 362.11550993 123 371 C124.22847656 371.31195313 125.45695312 371.62390625 126.72265625 371.9453125 C134.28770472 374.05113886 141.1045473 377.27272827 148 381 C140.51012302 426.61842871 109.33915839 476.91631589 78 510 C76.70086056 511.45168027 75.40878499 512.90972358 74.125 514.375 C73.59132813 514.98085938 73.05765625 515.58671875 72.5078125 516.2109375 C70.93210444 518.02855765 70.93210444 518.02855765 69.4296875 520.2265625 C68.95789063 520.81179688 68.48609375 521.39703125 68 522 C67.34 522 66.68 522 66 522 C65.74476563 522.58136719 65.48953125 523.16273438 65.2265625 523.76171875 C61.86091726 529.90348538 55.41296939 534.70707112 50.09301758 539.15795898 C47.99775134 540.93427574 47.99775134 540.93427574 46.30102539 542.86254883 C43.47578354 545.81356531 41.28307819 547.76270312 37.19482422 548.51879883 C33.90649177 548.57390909 30.71475646 548.40045654 27.4375 548.125 C26.24294189 548.04983154 25.04838379 547.97466309 23.81762695 547.8972168 C20.2054202 547.64898401 16.60477864 547.33851725 13 547 C12.00419922 546.90895996 11.00839844 546.81791992 9.98242188 546.72412109 C-44.62537331 541.38287914 -95.1621777 521.95861122 -144 498 C-145.03608398 497.49291504 -146.07216797 496.98583008 -147.13964844 496.46337891 C-159.45892787 490.41890852 -171.60875921 484.16512909 -183.54150391 477.38964844 C-186.29544755 475.83300025 -189.05906515 474.29445747 -191.82421875 472.7578125 C-203.37427298 466.33276076 -214.8506651 459.79731201 -226.25366211 453.11474609 C-235.2783567 447.82653183 -244.35473772 442.63287534 -253.4453125 437.45898438 C-255.98886705 436.00635804 -258.52644206 434.54379429 -261.0625 433.078125 C-275.505919 424.74612594 -290.08088259 416.45955871 -305 409 C-305.24882666 403.05955072 -305.42939122 397.12218584 -305.54931641 391.17773438 C-305.5993416 389.15994386 -305.66739003 387.14251104 -305.75439453 385.12597656 C-306.49822882 367.43147156 -306.49822882 367.43147156 -302.88110352 362.56152344 C-300.38347637 360.08160996 -297.83207226 358.0780113 -295 356 C-282.11149932 342.04978915 -271.75132324 325.36593169 -261.29541016 309.58374023 C-259.60816535 307.03709055 -257.91584462 304.49387289 -256.22265625 301.95117188 C-255.6724884 301.12127747 -255.12232056 300.29138306 -254.55548096 299.43634033 C-253.47234995 297.81061679 -252.38033953 296.19076973 -251.2789917 294.57733154 C-249.00617718 291.21906794 -247.05689556 288.13206494 -245.44628906 284.39355469 C-243.94843121 280.97852683 -243.02128973 279.21269703 -240 277 C-232.70069508 275.12341661 -224.95302301 275.84238266 -217.5 276.125 C-215.46230299 276.15450365 -213.42453181 276.17928185 -211.38671875 276.19921875 C-183.35447464 276.64886571 -152.48924966 278.96376011 -131 299 C-130.23429688 299.67546875 -129.46859375 300.3509375 -128.6796875 301.046875 C-114.87163572 313.87198072 -107.0692566 332.50516687 -105.5 351.125 C-104.95217273 355.3768521 -104.95217273 355.3768521 -102 358 C-101.34 358 -100.68 358 -100 358 C-99.03780814 353.96321083 -98.87663144 350.20355661 -98.87974548 346.0587616 C-98.87889106 345.37253623 -98.87803663 344.68631086 -98.87715632 343.97929078 C-98.87551323 341.68693201 -98.88100367 339.39464692 -98.88647461 337.10229492 C-98.88675676 335.45625816 -98.8865982 333.81022126 -98.8860321 332.16418457 C-98.88574522 327.69973597 -98.89162444 323.23531424 -98.89860606 318.77087188 C-98.90485764 314.10370377 -98.90544483 309.43653505 -98.90663147 304.7693634 C-98.90973946 295.93324014 -98.91794569 287.09712924 -98.92798096 278.26101142 C-98.93915861 268.20062908 -98.94465671 258.14024614 -98.94967639 248.07985914 C-98.96012873 227.38656585 -98.97771789 206.69328371 -99 186 C-101.48691795 186.78244132 -101.48691795 186.78244132 -104 188 C-105.31084122 191.0924011 -105.31084122 191.0924011 -106 194.8125 C-106.31993508 196.17970457 -106.64557202 197.54558596 -106.9765625 198.91015625 C-107.14188477 199.5973877 -107.30720703 200.28461914 -107.47753906 200.99267578 C-111.90978389 218.02160896 -122.18272895 236.76332001 -137.68408203 246.00390625 C-153.1563697 254.70531213 -168.47167837 257.73567334 -186 259 C-187.12148438 259.08677002 -187.12148438 259.08677002 -188.265625 259.17529297 C-201.50051739 260.1780265 -214.73451807 260.10978563 -228 260 C-227.32317893 256.49488723 -225.9108334 253.79900432 -224.15625 250.703125 C-223.28311157 249.15419556 -223.28311157 249.15419556 -222.39233398 247.57397461 C-221.76786377 246.47706299 -221.14339355 245.38015137 -220.5 244.25 C-219.86070557 243.11763916 -219.22141113 241.98527832 -218.56274414 240.81860352 C-216.7128857 237.54322609 -214.85741875 234.27109455 -213 231 C-200.24336759 208.50176922 -188.1397879 185.67242888 -176.2592926 162.70143127 C-175.00122489 160.26933734 -173.74237671 157.83764759 -172.48361206 155.40591431 C-171.59011954 153.67840071 -170.69847253 151.94993298 -169.80688477 150.22143555 C-168.71265027 148.10540605 -167.60961343 145.99389831 -166.49658203 143.88769531 C-165.55224218 142.06556616 -164.64628358 140.22254136 -163.79638672 138.35449219 C-161.2646391 133.0575964 -159.01389212 130.86257323 -153.48486328 128.83789062 C-152.6648584 128.56138672 -151.84485352 128.28488281 -151 128 C-149.28697512 127.31571654 -147.57740858 126.62272292 -145.87109375 125.921875 C-144.98953613 125.56996094 -144.10797852 125.21804687 -143.19970703 124.85546875 C-132.8561773 120.71586272 -122.82332629 116.25439592 -113 111 C-112.34870117 110.65501465 -111.69740234 110.3100293 -111.02636719 109.95458984 C-91.16636932 99.36614144 -73.04217323 86.1650075 -56.88452148 70.5065918 C-56.28969971 69.93465088 -55.69487793 69.36270996 -55.08203125 68.7734375 C-54.55843018 68.26216309 -54.0348291 67.75088867 -53.49536133 67.22412109 C-52 66 -52 66 -49 65 C-44.63714232 68.96879311 -40.30761024 72.97132518 -36 77 C-35.21592773 77.72872314 -35.21592773 77.72872314 -34.41601562 78.47216797 C-19.59719924 92.34664802 -8.7137791 109.15090896 2.37304688 126.01904297 C2.79664993 126.66252182 3.22025299 127.30600067 3.6566925 127.96897888 C4.45882207 129.18901466 5.25872623 130.41051734 6.05607605 131.63368225 C7.5832106 133.958494 9.02682682 136.02682682 11 138 C12.32 138 13.64 138 15 138 C15.34871285 131.79971541 14.04236653 126.52835181 12.4375 120.5625 C6.08751867 95.96586257 1.1366203 71.22665553 -2.97207642 46.17007446 C-3.9312856 40.3407366 -4.95921514 34.52440654 -6.01837158 28.7124176 C-8.20424782 16.55271883 -7.08390929 10.35479598 0 0 Z " fill="#FEFEFE" transform="translate(683,125)"/>
<path d="M0 0 C3.61302491 0.7656526 4.91273199 1.66360691 7.25 4.5625 C33.16017277 35.26278874 73.78353701 49.15252752 111.60546875 58.80737305 C112.54390625 59.0475415 113.48234375 59.28770996 114.44921875 59.53515625 C115.27768311 59.745354 116.10614746 59.95555176 116.9597168 60.17211914 C119.71833923 60.92330268 122.45253296 61.72750196 125.1900177 62.55174255 C126.09070889 62.82270972 126.99140009 63.09367689 127.91938496 63.37285519 C128.60598792 63.57981297 129.29259089 63.78677076 130 64 C130.02281217 93.70808423 130.04050947 123.41616817 130.05106533 153.12425927 C130.05231604 156.63150489 130.05361036 160.1387505 130.05493164 163.64599609 C130.05532511 164.69334108 130.05532511 164.69334108 130.05572652 165.76184456 C130.06007792 177.06774864 130.06796257 188.37364763 130.0771528 199.6795487 C130.08650404 211.28028476 130.09198388 222.88101786 130.09408849 234.48175752 C130.09539347 240.99776799 130.09846592 247.51376693 130.10573006 254.02977371 C130.11250994 260.16099216 130.11461293 266.2921943 130.11310768 272.42341614 C130.11338312 274.67525191 130.11537658 276.92708821 130.11920547 279.17892075 C130.1241734 282.25094326 130.12298677 285.32290406 130.12025452 288.39492798 C130.12462378 289.73443526 130.12462378 289.73443526 130.12908131 291.10100329 C130.11845173 295.51641917 129.89215562 299.65287346 129 304 C121.7938016 303.50828293 114.86592138 302.23808857 107.80859375 300.71875 C99.38160928 299.12842678 91.12908928 298.81765129 82.5625 298.8125 C81.49451172 298.80025391 80.42652344 298.78800781 79.32617188 298.77539062 C65.49418757 298.75004184 51.39770881 301.60630782 40.5859375 310.765625 C39 312 39 312 36 313 C34.89156762 314.85698415 34.89156762 314.85698415 34 317 C33.64679688 317.57878906 33.29359375 318.15757812 32.9296875 318.75390625 C29.62416861 324.42225901 29.10614047 329.53103721 30 336 C31.77331651 342.69453217 35.13684458 347.32993325 41 351 C47.18412941 354.19445095 53.07689478 355.76023878 60 356 C61.21300781 356.0515625 62.42601562 356.103125 63.67578125 356.15625 C85.8228311 356.78879694 105.28026125 351.04066021 125.21337891 341.78442383 C127 341 127 341 130 340 C130.47521918 459.93088029 130.47521918 459.93088029 114.26171875 477.9296875 C105.41837227 486.46177747 93.71000769 488.86933292 82 491 C81.67 492.32 81.34 493.64 81 495 C76.07678971 493.41278741 72.42416433 490.54554621 68.375 487.4375 C67.66569336 486.89810791 66.95638672 486.35871582 66.22558594 485.80297852 C56.61124088 478.45717455 47.45664145 470.73147145 38.60742188 462.48535156 C36.891794 460.90001135 35.15872741 459.33548292 33.421875 457.7734375 C32.83003418 457.23759033 32.23819336 456.70174316 31.62841797 456.1496582 C30.48555917 455.11516571 29.3389158 454.08483424 28.18798828 453.05932617 C25.47356691 450.58748986 23.32679345 448.46440512 22 445 C21.34 445 20.68 445 20 445 C18.73046875 443.77734375 18.73046875 443.77734375 17.1875 441.9375 C14.86757525 439.19577075 12.53774599 436.47119263 10.140625 433.796875 C-32.40742517 386.0595533 -59.62798426 325.86512824 -70 263 C-70.16516113 262.06430176 -70.33032227 261.12860352 -70.50048828 260.16455078 C-76.03441934 227.88233245 -75.66555665 191.23121797 -70 159 C-69.83371094 157.97583984 -69.66742188 156.95167969 -69.49609375 155.89648438 C-60.00035605 97.83180679 -34.47455912 46.97872005 0 0 Z " fill="#FEFEFE" transform="translate(181,202)"/>
<path d="M0 0 C1.92179928 1.11450967 3.84278552 2.23042137 5.76342773 3.34692383 C6.83326401 3.96819656 7.90310028 4.5894693 9.00535583 5.22956848 C12.45433722 7.26860385 15.75406129 9.42798226 19.0625 11.6875 C24.76724834 15.54633017 30.54272153 19.27441156 36.375 22.9375 C42.44453406 26.75004585 48.49021347 30.59392038 54.5 34.5 C81.62187052 52.08271402 109.07321491 68.57210044 138 83 C138.87527344 83.43892578 139.75054688 83.87785156 140.65234375 84.33007812 C173.26084 100.58078192 208.2449403 113.72390108 243.91455078 121.33349609 C247.23117054 122.04993635 250.53485841 122.81378539 253.83984375 123.58203125 C269.49114923 127.16052273 285.01792765 129.53463013 301 131 C302.11068848 131.10296387 303.22137695 131.20592773 304.36572266 131.31201172 C310.90756457 131.91154638 317.45169788 132.47579703 324 133 C320.7745504 136.49757189 317.14565498 139.096234 313.1875 141.6875 C312.52516357 142.12392822 311.86282715 142.56035645 311.18041992 143.01000977 C304.24081188 147.5485512 297.1839798 151.86019372 290 156 C288.8847998 156.64388672 288.8847998 156.64388672 287.74707031 157.30078125 C262.60518742 171.71504538 235.87134632 183.01675005 208 191 C207.17854492 191.2381543 206.35708984 191.47630859 205.51074219 191.72167969 C175.69554895 200.31028409 144.66013691 206.07601083 113.5625 206.203125 C112.41156357 206.21009399 111.26062714 206.21706299 110.07481384 206.22424316 C106.38317161 206.24153751 102.69168105 206.24796223 99 206.25 C97.11234421 206.25151062 97.11234421 206.25151062 95.18655396 206.25305176 C77.24014969 206.24331516 59.74533816 205.85946758 42 203 C40.07425278 202.71851707 38.14847145 202.43726745 36.22265625 202.15625 C15.52370646 198.97247235 -5.20976759 193.85974754 -25 187 C-25.82628906 186.71543945 -26.65257812 186.43087891 -27.50390625 186.13769531 C-39.55495876 181.95450622 -51.32008766 177.35061155 -62.88818359 171.97363281 C-64.93332526 171.03073975 -66.98947686 170.11785144 -69.05078125 169.2109375 C-84.93029319 162.11815249 -101.0456753 153.4221907 -115 143 C-115 142.67 -115 142.34 -115 142 C-58.24 142 -1.48 142 57 142 C56.67 140.68 56.34 139.36 56 138 C52.72283454 136.21190041 49.21317176 135.54652029 45.58251953 134.7590332 C30.80985853 131.49347882 16.95079485 125.03956381 8.125 112.1875 C7.37341861 110.81446969 6.66612084 109.41646385 6 108 C5.63261719 107.23300781 5.26523437 106.46601562 4.88671875 105.67578125 C-3.38997611 85.05928679 -0.2581149 58.8345515 -0.1373291 36.97558594 C-0.11648889 32.7910368 -0.10765571 28.6064616 -0.09765625 24.421875 C-0.0765119 16.28118104 -0.04259824 8.14060992 0 0 Z " fill="#FEFEFE" transform="translate(378,556)"/>
<path d="M0 0 C4.86005773 -0.16544378 8.99970035 0.84232511 13.50683594 2.51708984 C14.22274902 2.77603027 14.93866211 3.0349707 15.67626953 3.30175781 C27.52754047 7.75901547 38.82656051 13.78318966 49.75683594 20.14208984 C43.14241769 11.70980168 35.10156203 6.22074533 25.75683594 1.14208984 C25.75683594 0.81208984 25.75683594 0.48208984 25.75683594 0.14208984 C44.66167461 -0.28125002 63.01302298 0.55061036 81.75683594 3.14208984 C83.21452393 3.34294189 83.21452393 3.34294189 84.70166016 3.54785156 C97.29368906 5.3586279 109.60985343 8.2007241 121.94433594 11.26708984 C122.65440796 11.44307709 123.36447998 11.61906433 124.09606934 11.80038452 C126.12403478 12.30619772 128.14978257 12.81994382 130.17480469 13.33740234 C131.93473755 13.78623779 131.93473755 13.78623779 133.73022461 14.24414062 C136.285437 15.002233 138.43944206 15.84788217 140.75683594 17.14208984 C138.47858565 21.41380913 135.96620398 25.2899103 133.07714844 29.17724609 C128.88024572 34.90865925 124.97882633 40.79707156 121.13183594 46.76708984 C119.86924835 48.71789115 118.60623315 50.66841577 117.34277344 52.61865234 C116.79669434 53.46508301 116.25061523 54.31151367 115.68798828 55.18359375 C114.73206787 56.64804932 114.73206787 56.64804932 113.75683594 58.14208984 C113.40153899 58.87456324 113.04624204 59.60703664 112.68017852 60.3617062 C110.73466253 63.9791392 109.26629044 66.64431715 105.2423327 67.97129738 C102.0257132 68.28060277 98.91507286 68.29829642 95.68411255 68.22438049 C94.45800384 68.23207032 93.23189514 68.23976014 91.96863163 68.24768299 C88.57136904 68.25993789 85.17878431 68.23186598 81.78208828 68.18668044 C78.11753993 68.14777978 74.45313365 68.16096887 70.78843689 68.1678009 C64.44156853 68.1725181 58.09553342 68.14430416 51.74887466 68.09366035 C42.57284532 68.020487 33.3972185 67.99707457 24.22092901 67.98576843 C9.33293004 67.96607519 -5.55462491 67.90619343 -20.44238281 67.82104492 C-34.90362325 67.73842187 -49.36474304 67.67472208 -63.82617188 67.63647461 C-64.71770721 67.6341101 -65.60924255 67.63174559 -66.52779411 67.62930942 C-71.00040685 67.61756401 -75.47302044 67.60619065 -79.9456346 67.59500229 C-117.0451246 67.50171564 -154.14410975 67.34320988 -191.24316406 67.14208984 C-188.34521068 64.20017072 -185.70752219 61.56819837 -182.15332031 59.45068359 C-180.99413086 58.75519409 -180.99413086 58.75519409 -179.81152344 58.0456543 C-178.98458984 57.56185303 -178.15765625 57.07805176 -177.30566406 56.57958984 C-176.43103516 56.06291748 -175.55640625 55.54624512 -174.65527344 55.01391602 C-151.63816992 41.51444198 -128.32011152 30.26097983 -103.24316406 21.14208984 C-102.5523877 20.88363281 -101.86161133 20.62517578 -101.14990234 20.35888672 C-68.98912877 8.37350526 -34.16599169 2.1641932 0 0 Z " fill="#FDFDFD" transform="translate(450.2431640625,63.85791015625)"/>
<path d="M0 0 C3.99261376 0.00686906 7.98475488 -0.02030562 11.97729492 -0.0456543 C36.88113651 -0.10708587 61.41007898 1.68025409 85.7253418 7.31567383 C80.82048342 17.52548478 75.4723795 27.41964382 69.85961914 37.25708008 C65.87453539 44.25238034 61.98538238 51.29279719 58.1628418 58.37817383 C57.62949219 59.36640137 57.09614258 60.35462891 56.54663086 61.37280273 C55.47528197 63.3592486 54.40431679 65.34590146 53.33374023 67.33276367 C50.66064905 72.29023605 47.9771678 77.24199267 45.2878418 82.19067383 C44.81596436 83.06344971 44.34408691 83.93622559 43.85791016 84.83544922 C42.95038672 86.50409023 42.03352848 88.16769354 41.10668945 89.82568359 C40.14562095 91.55808685 39.21507288 93.30762886 38.30883789 95.06933594 C35.9917346 99.35268898 34.60420049 101.83566655 30.2565918 104.21020508 C28.92388271 104.56117542 27.57801125 104.86439543 26.2253418 105.12817383 C25.45818848 105.30791748 24.69103516 105.48766113 23.90063477 105.67285156 C21.1845226 106.27984359 18.46093478 106.80371803 15.7253418 107.31567383 C14.6725 107.51999023 13.6196582 107.72430664 12.53491211 107.93481445 C-7.02581475 111.65905983 -26.75159918 113.95744184 -46.5534668 115.9387207 C-48.72471439 116.158666 -50.89503678 116.38913256 -53.06225586 116.64575195 C-62.42912221 117.68671709 -71.86451253 117.3986232 -81.2746582 117.31567383 C-81.91206099 25.54990738 -81.91206099 25.54990738 -71.88012695 13.66333008 C-54.56057922 -2.89769732 -21.78774014 -0.04052501 0 0 Z " fill="#FDFDFD" transform="translate(459.274658203125,145.684326171875)"/>
<path d="M0 0 C0 0.66 0 1.32 0 2 C1.546875 1.87625 1.546875 1.87625 3.125 1.75 C15.61519365 1.79421307 29.226998 7.75841921 38.3828125 16.19140625 C53.82003041 33.45573449 56.20380187 56.42840599 56.09765625 78.546875 C56.0962413 79.68408997 56.09482635 80.82130493 56.09336853 81.99298096 C56.08782942 85.57868223 56.07528877 89.16431802 56.0625 92.75 C56.05747711 95.20051992 56.0529156 97.65104084 56.04882812 100.1015625 C56.03788004 106.06773018 56.02120392 112.03386041 56 118 C45.35440243 115.76548892 34.93612729 113.32722901 24.625 109.8125 C23.47870117 109.42521729 22.33240234 109.03793457 21.15136719 108.63891602 C10.78664485 105.06096301 0.83012436 100.84670555 -9 96 C-10.02722168 95.49968262 -10.02722168 95.49968262 -11.07519531 94.98925781 C-29.47914387 85.93592042 -50.00465233 72.64337678 -59.1484375 53.609375 C-58.89224515 49.10578314 -55.57079834 46.63813014 -52.5 43.5625 C-51.82018066 42.86165283 -51.14036133 42.16080566 -50.43994141 41.4387207 C-37.40955945 28.12767974 -23.51499742 15.81916838 -8.875 4.3125 C-8.33020996 3.87776367 -7.78541992 3.44302734 -7.22412109 2.99511719 C-3.35104028 0 -3.35104028 0 0 0 Z " fill="#FDFDFD" transform="translate(254,135)"/>
<path d="M0 0 C-0.61449268 4.63010502 -2.54005741 8.39480441 -4.68359375 12.4765625 C-5.05441071 13.19453506 -5.42522766 13.91250763 -5.80728149 14.65223694 C-7.01131555 16.97967959 -8.22420609 19.30237305 -9.4375 21.625 C-10.27382927 23.23648956 -11.10968371 24.84822563 -11.94506836 26.46020508 C-13.95032468 30.32556708 -15.962788 34.18710599 -17.97937012 38.04656982 C-18.83914826 39.69213851 -19.69756322 41.33841933 -20.55566406 42.98486328 C-24.2783801 50.1241415 -28.05856689 57.23245284 -31.84249878 64.33943176 C-33.64551153 67.72601527 -35.44785891 71.11295258 -37.25 74.5 C-37.79346069 75.52110367 -37.79346069 75.52110367 -38.34790039 76.56283569 C-45.66840356 90.32222472 -52.86155039 104.14533175 -60 118 C-63.79164893 118.02994619 -67.5832663 118.04710433 -71.375 118.0625 C-72.93734375 118.07506836 -72.93734375 118.07506836 -74.53125 118.08789062 C-84.09317211 118.1166916 -93.39623373 117.53354257 -103 117 C-103 100.5 -103 84 -103 67 C-103.66 67 -104.32 67 -105 67 C-105 66.34 -105 65.68 -105 65 C-104.34 65 -103.68 65 -103 65 C-103 45.2 -103 25.4 -103 5 C-98.69582031 4.95101563 -94.39164062 4.90203125 -89.95703125 4.8515625 C-86.46026524 4.80682488 -82.9635318 4.76034192 -79.4668045 4.71270752 C-75.81148255 4.66337905 -72.15618273 4.616911 -68.50073242 4.578125 C-47.7946241 4.35548991 -27.44854118 3.34036829 -6.93359375 0.3671875 C-4 0 -4 0 0 0 Z " fill="#FBFBFB" transform="translate(481,268)"/>
<path d="M0 0 C6.20511676 0.56993036 11.6896972 1.93914686 17.5625 4 C18.86815918 4.45705322 18.86815918 4.45705322 20.20019531 4.92333984 C28.49065675 7.95891951 35.65846281 12.15693909 43 17 C44.64326623 18.02496056 46.28857411 19.04666957 47.9375 20.0625 C48.948125 20.701875 49.95875 21.34125 51 22 C46.02747128 34.62033606 25.85162249 44.11251625 15 51 C14.26233398 51.46825195 13.52466797 51.93650391 12.76464844 52.41894531 C-3.11376292 62.37734944 -20.28656278 70.84619552 -38 77 C-36.61389848 72.5442216 -34.87252555 68.44459215 -32.83203125 64.25 C-32.52023926 63.60691391 -32.20844727 62.96382782 -31.88720703 62.30125427 C-30.86629792 60.19886592 -29.83972619 58.09930825 -28.8125 56 C-28.09781429 54.53397752 -27.38321587 53.06791248 -26.66870117 51.60180664 C-24.45405804 47.06380406 -22.22883809 42.53104497 -20 38 C-19.64373535 37.27544617 -19.2874707 36.55089233 -18.92041016 35.80438232 C-16.87978958 31.65705342 -14.83209079 27.51332859 -12.77474976 23.37426758 C-12.14042181 22.09752441 -11.50727587 20.82019321 -10.87539673 19.54223633 C-7.54176099 12.80745665 -4.12524793 6.28498226 0 0 Z " fill="#FCFCFC" transform="translate(571,158)"/>
<path d="M0 0 C19.33556027 5.97247912 37.58200431 15.11477268 55.125 25.125 C55.91825684 25.57383545 56.71151367 26.0226709 57.52880859 26.48510742 C62.87529376 29.62588127 62.87529376 29.62588127 64 33 C62.68 35.97 61.36 38.94 60 42 C31.62 42 3.24 42 -26 42 C-24.57271267 38.43178168 -23.3204575 35.67578353 -21.34765625 32.48046875 C-20.82324951 31.6299292 -20.29884277 30.77938965 -19.75854492 29.90307617 C-19.1988501 29.00693604 -18.63915527 28.1107959 -18.0625 27.1875 C-17.48927002 26.26493408 -16.91604004 25.34236816 -16.32543945 24.3918457 C-11.12846974 16.08801529 -5.64788221 8.00210966 0 0 Z " fill="#FDFDFD" transform="translate(612,88)"/>
<path d="M0 0 C0 2.97 0 5.94 0 9 C-22.467197 20.08235054 -49.62851765 31.14528193 -75 24 C-79.82380465 22.22239666 -83.26942593 20.4969395 -86 16 C-86.93491949 11.34877552 -86.7742835 6.48763113 -84.375 2.3125 C-79.37911556 -3.69683529 -70.34126352 -7.73310431 -62.67578125 -8.68359375 C-40.95338623 -10.48111848 -20.21185192 -8.34753349 0 0 Z " fill="#FCFCFC" transform="translate(310,523)"/>
<path d="M0 0 C1.24394531 0.00322266 2.48789062 0.00644531 3.76953125 0.00976562 C5.05472656 0.01814453 6.33992188 0.02652344 7.6640625 0.03515625 C8.97246094 0.03966797 10.28085937 0.04417969 11.62890625 0.04882812 C14.84900531 0.06058031 18.0690102 0.07701082 21.2890625 0.09765625 C20.08050449 4.01713122 18.69193635 7.42800149 16.59375 10.94921875 C16.05008789 11.87017334 15.50642578 12.79112793 14.94628906 13.73999023 C14.3581543 14.72427002 13.77001953 15.7085498 13.1640625 16.72265625 C11.90479916 18.85070464 10.64705241 20.97965101 9.390625 23.109375 C8.72708008 24.2339209 8.06353516 25.3584668 7.37988281 26.51708984 C5.17353468 30.27902932 3.02074444 34.07043959 0.875 37.8671875 C0.51191742 38.50851624 0.14883484 39.14984497 -0.22525024 39.81060791 C-1.66043223 42.34654183 -3.09513891 44.88267174 -4.52008057 47.42437744 C-5.51130908 49.19180235 -6.50940474 50.95537066 -7.5078125 52.71875 C-8.07854492 53.73380615 -8.64927734 54.7488623 -9.23730469 55.79467773 C-10.7109375 58.09765625 -10.7109375 58.09765625 -12.7109375 59.09765625 C-12.7109375 58.43765625 -12.7109375 57.77765625 -12.7109375 57.09765625 C-13.3709375 57.09765625 -14.0309375 57.09765625 -14.7109375 57.09765625 C-14.7109375 56.43765625 -14.7109375 55.77765625 -14.7109375 55.09765625 C-14.0509375 55.09765625 -13.3909375 55.09765625 -12.7109375 55.09765625 C-12.7109375 37.27765625 -12.7109375 19.45765625 -12.7109375 1.09765625 C-8.19620324 0.34520054 -4.50355071 -0.02065849 0 0 Z " fill="#F3F3F3" transform="translate(390.7109375,400.90234375)"/>
</svg>
