<?xml version="1.0" encoding="UTF-8"?>
<svg version="1.1" xmlns="http://www.w3.org/2000/svg" width="952" height="784">
<path d="M0 0 C2.5464464 -0.01006872 5.09288527 -0.02222256 7.63931274 -0.0362854 C13.8003808 -0.06421881 19.96106776 -0.06889013 26.12218292 -0.06127223 C31.13924836 -0.05541171 36.15623109 -0.05869277 41.17329025 -0.06824493 C41.89149094 -0.06958855 42.60969163 -0.07093216 43.34965598 -0.07231648 C44.8094321 -0.07506017 46.2692082 -0.07781265 47.72898428 -0.08057383 C61.37562499 -0.10509814 75.02210777 -0.09762128 88.66874962 -0.08000377 C101.10036782 -0.06492079 113.53154203 -0.08907371 125.96308358 -0.13203618 C138.78376769 -0.17600064 151.60424458 -0.19362726 164.42500341 -0.1832602 C171.60039537 -0.17789143 178.77543158 -0.18229672 185.9507637 -0.21422577 C192.70636513 -0.24394927 199.46097343 -0.2361377 206.21660995 -0.20450974 C208.67740166 -0.19851529 211.13825736 -0.20411621 213.59898376 -0.22301865 C230.06210688 -0.3399339 243.92444889 2.00548426 259.38427734 7.67871094 C260.88789699 8.21309166 262.39184322 8.74655479 263.89618874 9.2788887 C267.56548247 10.59972611 271.19497629 11.99558302 274.82177734 13.42871094 C275.46794006 13.68194122 276.11410278 13.93517151 276.77984619 14.19607544 C322.93892144 32.3069894 365.88539124 56.74567556 403.52636719 89.12402344 C404.89834457 90.27208546 406.29295089 91.39323003 407.69921875 92.49902344 C415.5070501 98.68401662 422.52300406 105.51129672 429.53710938 112.57080078 C431.50610884 114.55052518 433.48558461 116.51931848 435.46630859 118.48730469 C442.56737791 125.58058537 449.18517201 132.77566303 455.38427734 140.67871094 C456.45608714 141.97324256 457.53247208 143.2640087 458.61474609 144.54980469 C502.51220938 197.27194063 530.92311125 262.00550854 541.38427734 329.67871094 C541.54798828 330.68224609 541.71169922 331.68578125 541.88037109 332.71972656 C547.25205958 366.8810017 546.94914635 404.56650211 541.38427734 438.67871094 C541.21798828 439.75443359 541.05169922 440.83015625 540.88037109 441.93847656 C533.9748772 485.80115077 519.60544004 531.36266672 496.15380859 569.32324219 C494.07414687 573.26679498 493.29685179 576.83075196 492.50927734 581.17871094 C485.73730474 614.50475498 463.25093816 642.92546107 435.27001953 661.47460938 C427.48954915 666.44266737 419.36931834 670.77735847 411.00927734 674.67871094 C405.93523602 677.16811995 402.26331386 680.25274326 398.18896484 684.13183594 C387.59267323 693.75409518 375.29296667 701.78006231 363.38427734 709.67871094 C362.66965332 710.15276367 361.9550293 710.62681641 361.21875 711.11523438 C330.95971455 731.03072177 298.33058617 746.26533187 264.38427734 758.67871094 C263.41538574 759.03304199 262.44649414 759.38737305 261.44824219 759.75244141 C217.3506289 775.64515939 168.90239525 784.70103894 122.01708984 784.88183594 C120.17809113 784.89228943 120.17809113 784.89228943 118.30194092 784.9029541 C114.37103706 784.92023553 110.44021086 784.92712942 106.50927734 784.92871094 C105.5048547 784.92959465 105.5048547 784.92959465 104.48014069 784.93049622 C83.95071143 784.94324355 63.74711251 784.51714839 43.38427734 781.67871094 C41.72477051 781.46190674 41.72477051 781.46190674 40.03173828 781.24072266 C-44.72216313 770.06152707 -127.98961415 735.41059542 -192.80273438 679.2043457 C-194.16462613 678.05830994 -195.5508061 676.94103835 -196.94824219 675.83862305 C-204.48505158 669.85960515 -211.26244982 663.30724919 -218.02392578 656.47631836 C-219.87166864 654.61020585 -221.7274023 652.75233381 -223.58447266 650.89550781 C-229.47050002 644.99204562 -235.24392534 639.06043638 -240.61572266 632.67871094 C-241.47294922 631.70289063 -242.33017578 630.72707031 -243.21337891 629.72167969 C-290.82875349 574.56028695 -322.81989883 504.0514551 -331.61572266 431.67871094 C-331.74492599 430.61780243 -331.74492599 430.61780243 -331.8767395 429.53546143 C-333.66534746 414.37288563 -333.97671296 399.30982258 -333.92822266 384.05371094 C-333.92639984 382.862164 -333.92457703 381.67061707 -333.92269897 380.44296265 C-333.87860814 363.32896982 -333.48165311 346.58657229 -330.61572266 329.67871094 C-330.36628906 328.09074707 -330.36628906 328.09074707 -330.11181641 326.47070312 C-319.01556269 256.37936718 -287.50787298 186.24894188 -238.77587891 134.01464844 C-237.57767888 132.7189457 -236.38923908 131.41321044 -235.24389648 130.07055664 C-230.07371691 124.01311667 -224.48387882 118.394917 -218.84594727 112.77856445 C-217.18145988 111.11943774 -215.52238819 109.45503042 -213.86376953 107.79003906 C-208.85758073 102.78118363 -203.81442528 97.8822422 -198.42456055 93.2824707 C-195.80779725 90.96238458 -193.40993653 88.45150414 -190.98632812 85.93261719 C-178.01762216 72.48892704 -163.57586608 62.46337531 -146.80322266 54.30371094 C-143.16332041 52.53057528 -139.70130102 50.56502617 -136.23608398 48.47924805 C-111.09323113 33.35296891 -84.62119674 20.95338536 -57.11572266 10.80371094 C-55.92422607 10.36325439 -54.73272949 9.92279785 -53.50512695 9.46899414 C-50.53969745 8.39639198 -47.56397962 7.36721855 -44.57715583 6.35629225 C-42.73506272 5.71993722 -40.907041 5.04325604 -39.08036232 4.3639183 C-26.18163352 -0.16978725 -13.54175157 -0.04303369 0 0 Z " fill="#FEFEFE" transform="translate(385.61572265625,-0.6787109375)"/>
<path d="M0 0 C0 3.85693575 -1.19323957 4.81383452 -3.5625 7.8125 C-10.37811796 16.94832833 -15.26931957 26.90553738 -18 38 C-18.41572266 39.40378906 -18.41572266 39.40378906 -18.83984375 40.8359375 C-24.43545984 61.3102194 -20.84533455 83.09222153 -11.1875 101.75 C8.53716661 135.99282223 49.02494682 154.44442711 85.42578125 165.0390625 C91.47591624 166.66565617 97.53513442 168.25779222 103.60546875 169.80737305 C105.013125 170.16762573 105.013125 170.16762573 106.44921875 170.53515625 C107.27768311 170.745354 108.10614746 170.95555176 108.9597168 171.17211914 C111.71833923 171.92330268 114.45253296 172.72750196 117.1900177 173.55174255 C118.09070889 173.82270972 118.99140009 174.09367689 119.91938496 174.37285519 C120.9492894 174.68329187 120.9492894 174.68329187 122 175 C122.02281217 204.70808423 122.04050947 234.41616817 122.05106533 264.12425927 C122.05231604 267.63150489 122.05361036 271.1387505 122.05493164 274.64599609 C122.05532511 275.69334108 122.05532511 275.69334108 122.05572652 276.76184456 C122.06007792 288.06774864 122.06796257 299.37364763 122.0771528 310.6795487 C122.08650404 322.28028476 122.09198388 333.88101786 122.09408849 345.48175752 C122.09539347 351.99776799 122.09846592 358.51376693 122.10573006 365.02977371 C122.11250994 371.16099216 122.11461293 377.2921943 122.11310768 383.42341614 C122.11338312 385.67525191 122.11537658 387.92708821 122.11920547 390.17892075 C122.1241734 393.25094326 122.12298677 396.32290406 122.12025452 399.39492798 C122.12462378 400.73443526 122.12462378 400.73443526 122.12908131 402.10100329 C122.11845173 406.51641917 121.89215562 410.65287346 121 415 C113.7938016 414.50828293 106.86592138 413.23808857 99.80859375 411.71875 C91.38160928 410.12842678 83.12908928 409.81765129 74.5625 409.8125 C73.49451172 409.80025391 72.42652344 409.78800781 71.32617188 409.77539062 C57.49418757 409.75004184 43.39770881 412.60630782 32.5859375 421.765625 C31 423 31 423 28 424 C26.89156762 425.85698415 26.89156762 425.85698415 26 428 C25.64679688 428.57878906 25.29359375 429.15757812 24.9296875 429.75390625 C21.62416861 435.42225901 21.10614047 440.53103721 22 447 C23.77331651 453.69453217 27.13684458 458.32993325 33 462 C39.18412941 465.19445095 45.07689478 466.76023878 52 467 C53.21300781 467.0515625 54.42601562 467.103125 55.67578125 467.15625 C77.8228311 467.78879694 97.28026125 462.04066021 117.21337891 452.78442383 C119 452 119 452 122 451 C122.47521918 570.93088029 122.47521918 570.93088029 106.26171875 588.9296875 C97.41837227 597.46177747 85.71000769 599.86933292 74 602 C73.67 603.65 73.34 605.3 73 607 C130.09 607 187.18 607 246 607 C245.67 605.68 245.34 604.36 245 603 C241.72283454 601.21190041 238.21317176 600.54652029 234.58251953 599.7590332 C219.80985853 596.49347882 205.95079485 590.03956381 197.125 577.1875 C196.37341861 575.81446969 195.66612084 574.41646385 195 573 C194.63261719 572.23300781 194.26523437 571.46601562 193.88671875 570.67578125 C185.61002389 550.05928679 188.7418851 523.8345515 188.8626709 501.97558594 C188.88351111 497.7910368 188.89234429 493.6064616 188.90234375 489.421875 C188.9234881 481.28118104 188.95740176 473.14060992 189 465 C190.92179928 466.11450967 192.84278552 467.23042137 194.76342773 468.34692383 C196.36818214 469.27883293 196.36818214 469.27883293 198.00535583 470.22956848 C201.45433722 472.26860385 204.75406129 474.42798226 208.0625 476.6875 C213.76724834 480.54633017 219.54272153 484.27441156 225.375 487.9375 C231.44453406 491.75004585 237.49021347 495.59392038 243.5 499.5 C270.62187052 517.08271402 298.07321491 533.57210044 327 548 C327.87527344 548.43892578 328.75054688 548.87785156 329.65234375 549.33007812 C362.26084 565.58078192 397.2449403 578.72390108 432.91455078 586.33349609 C436.23117054 587.04993635 439.53485841 587.81378539 442.83984375 588.58203125 C489.84489688 599.32724879 541.88646228 602.67669003 588.37109375 588.3671875 C592.87042537 586.99231227 597.39669602 585.9676615 602 585 C599.06003869 588.97675926 595.77794111 592.01186288 591.875 595 C591.26736816 595.47002441 590.65973633 595.94004883 590.03369141 596.42431641 C550.59589421 626.70992407 507.67869631 650.04822803 461 667 C460.03690918 667.35143066 459.07381836 667.70286133 458.08154297 668.06494141 C413.97890888 683.96401012 365.52521666 693.02230063 318.6328125 693.203125 C316.79381378 693.21357849 316.79381378 693.21357849 314.91766357 693.22424316 C310.98675972 693.24152459 307.05593352 693.24841848 303.125 693.25 C302.12057735 693.25088371 302.12057735 693.25088371 301.09586334 693.25178528 C280.56643409 693.26453261 260.36283517 692.83843745 240 690 C238.34049316 689.7831958 238.34049316 689.7831958 236.64746094 689.56201172 C151.89355953 678.38281613 68.62610851 643.73188448 3.81298828 587.52563477 C2.45109653 586.379599 1.06491656 585.26232741 -0.33251953 584.15991211 C-7.86932892 578.18089421 -14.64672716 571.62853825 -21.40820312 564.79760742 C-23.25594598 562.93149491 -25.11167965 561.07362288 -26.96875 559.21679688 C-32.85477736 553.31333469 -38.62820268 547.38172545 -44 541 C-44.85722656 540.02417969 -45.71445313 539.04835938 -46.59765625 538.04296875 C-94.21303083 482.88157601 -126.20417617 412.37274416 -135 340 C-135.12920334 338.93909149 -135.12920334 338.93909149 -135.26101685 337.85675049 C-137.0496248 322.69417469 -137.3609903 307.63111165 -137.3125 292.375 C-137.31067719 291.18345306 -137.30885437 289.99190613 -137.30697632 288.76425171 C-137.26288549 271.65025888 -136.86593045 254.90786135 -134 238 C-133.83371094 236.94135742 -133.66742188 235.88271484 -133.49609375 234.79199219 C-122.39984004 164.70065624 -90.89215032 94.57023094 -42.16015625 42.3359375 C-40.96195623 41.04023476 -39.77351642 39.7344995 -38.62817383 38.3918457 C-33.45799425 32.33440573 -27.86815617 26.71620606 -22.23022461 21.09985352 C-20.56573723 19.4407268 -18.90666553 17.77631949 -17.24804688 16.11132812 C-11.67051829 10.53067575 -6.05839309 5.06580695 0 0 Z " fill="#FEFEFE" transform="translate(189,91)"/>
<path d="M0 0 C0.79269287 0.00821777 1.58538574 0.01643555 2.40209961 0.02490234 C12.16823521 0.21191987 19.50637763 1.60459671 27.0625 8.25 C34.80371558 17.07060075 36.58646915 27.1999503 36.375 38.625 C36.36227051 39.64158691 36.34954102 40.65817383 36.33642578 41.70556641 C35.89662211 64.368177 27.06080143 86.48660813 14.5 105.25 C10.70672282 111.26483793 9.99347379 115.27887113 11.0625 122.25 C11.33900391 124.05984375 11.33900391 124.05984375 11.62109375 125.90625 C12.21993301 129.5518622 12.90922108 133.17750777 13.60498047 136.80566406 C14.24409914 140.22020843 14.81928473 143.64464061 15.39819336 147.06982422 C19.45994293 170.96613889 24.14875968 194.57506417 30.16674805 218.05322266 C30.45464958 219.19448105 30.45464958 219.19448105 30.74836731 220.35879517 C31.10633029 221.77676412 31.47087069 223.19309732 31.84355164 224.60726929 C32.92256925 228.90464816 33.22339748 232.82782201 33.0625 237.25 C31.4125 237.58 29.7625 237.91 28.0625 238.25 C22.98743786 232.65501559 18.97613857 226.68351022 14.9375 220.3125 C5.68112549 205.94142027 -4.03669676 192.54182964 -15.9375 180.25 C-16.41638672 179.75064941 -16.89527344 179.25129883 -17.38867188 178.73681641 C-22.26310317 173.66656632 -26.96733034 169.0151289 -32.9375 165.25 C-36.45451044 168.29337293 -39.96383601 171.3361086 -43.35546875 174.51953125 C-67.6920393 197.30975389 -97.04173721 213.78210085 -127.92578125 225.875 C-129.47084351 226.49967163 -129.47084351 226.49967163 -131.04711914 227.13696289 C-133.9375 228.25 -133.9375 228.25 -136.46655273 228.95483398 C-142.03988578 230.7214687 -143.98570057 233.41648433 -146.74609375 238.53515625 C-148.00597425 241.10561966 -149.19134255 243.70628176 -150.375 246.3125 C-151.02812724 247.69162615 -151.68449026 249.0692243 -152.34399414 250.4453125 C-153.64263461 253.15921438 -154.9296325 255.87809019 -156.20703125 258.60205078 C-158.30437374 263.05219231 -160.55351915 267.41302003 -162.875 271.75 C-163.25479004 272.46454346 -163.63458008 273.17908691 -164.02587891 273.9152832 C-164.84810753 275.46059821 -165.67191621 277.00507326 -166.49707031 278.54882812 C-167.89086059 281.16253925 -169.27701679 283.78021023 -170.66137695 286.39892578 C-181.90928369 307.6706287 -193.50476727 328.69902117 -205.8894043 349.3359375 C-206.40543213 350.19960938 -206.92145996 351.06328125 -207.453125 351.953125 C-207.90977539 352.71270508 -208.36642578 353.47228516 -208.83691406 354.25488281 C-210.07198422 356.35121632 -210.07198422 356.35121632 -210.9375 359.25 C-205.32192677 359.00897829 -199.70675426 358.76033793 -194.09179688 358.50537109 C-192.19149363 358.42006831 -190.29110421 358.33665905 -188.390625 358.25537109 C-178.27552754 357.8214077 -168.18560978 357.2796893 -158.10546875 356.31640625 C-157.31251404 356.24378571 -156.51955933 356.17116516 -155.70257568 356.09634399 C-138.09329811 354.29849167 -121.02959827 347.5110011 -108.9375 334.25 C-98.86437754 321.65859693 -92.09324632 306.92305538 -88.8125 291.125 C-87.9375 287.25 -87.9375 287.25 -85.9375 285.25 C-84.6175 285.25 -83.2975 285.25 -81.9375 285.25 C-80.51070484 288.10359032 -80.80821777 290.52280522 -80.80378723 293.71417236 C-80.80152167 294.38543396 -80.79925612 295.05669555 -80.79692191 295.74829841 C-80.79056778 298.00832297 -80.79141218 300.26828778 -80.79223633 302.52832031 C-80.78924564 304.14447609 -80.78584333 305.76063116 -80.78205872 307.37678528 C-80.77320348 311.77569356 -80.77087991 316.1745824 -80.77024293 320.57349873 C-80.76929466 324.24386544 -80.76561716 327.91422761 -80.76207083 331.58459258 C-80.75391985 340.24536223 -80.75148712 348.90612149 -80.75219727 357.56689453 C-80.75279766 366.50206778 -80.74225489 375.43718058 -80.7264536 384.37233853 C-80.71337617 392.04035261 -80.70801348 399.70834695 -80.70865268 407.3763721 C-80.70890768 411.95741062 -80.70605532 416.53839549 -80.69547462 421.11942291 C-80.6857907 425.4302165 -80.6857165 429.7409052 -80.69299126 434.0517025 C-80.69403686 435.63271678 -80.69167566 437.2137376 -80.6856308 438.79474068 C-80.67790403 440.95591456 -80.68256008 443.11672687 -80.69026184 445.27789307 C-80.68971707 446.48653141 -80.68917231 447.69516975 -80.68861103 448.9404335 C-80.94457566 452.34408757 -81.71815894 455.07423977 -82.9375 458.25 C-87.8125 456.5 -87.8125 456.5 -88.9375 454.25 C-89.24758933 452.16108744 -89.55400887 450.07152725 -89.83691406 447.97875977 C-92.42453812 429.22208926 -99.46851743 413.76615939 -112.9375 400.25 C-113.84048828 399.31220703 -113.84048828 399.31220703 -114.76171875 398.35546875 C-128.88083687 384.7876394 -148.19594907 380.52320176 -166.9375 378.25 C-167.57400482 378.17245987 -168.21050964 378.09491974 -168.86630249 378.01502991 C-177.92229839 376.95521094 -186.98162753 376.46363779 -196.09277344 376.18579102 C-198.23725421 376.10367373 -200.38070371 375.98748843 -202.52148438 375.8371582 C-214.31291494 374.6521337 -214.31291494 374.6521337 -224.8661499 378.82830811 C-228.36562618 383.04491483 -230.5779988 387.85923926 -232.79388428 392.83651733 C-234.54640182 396.5350243 -236.80945001 399.80907638 -239.1484375 403.15625 C-240.00357974 404.41730775 -240.85774799 405.67902653 -241.7109375 406.94140625 C-242.57765621 408.21125759 -243.4448524 409.48078316 -244.3125 410.75 C-244.76560547 411.41499512 -245.21871094 412.07999023 -245.68554688 412.76513672 C-273.14861376 453.06420226 -273.14861376 453.06420226 -282.43048096 460.43569946 C-285.83648968 463.32209283 -287.32244486 465.36608981 -287.71044922 469.87841797 C-287.75109924 471.66591029 -287.76006199 473.45432237 -287.7421875 475.2421875 C-287.75589386 476.18812775 -287.76960022 477.13406799 -287.78372192 478.1086731 C-287.82095791 481.11460202 -287.81731134 484.11887357 -287.8125 487.125 C-287.83063123 489.16929658 -287.85143526 491.21357133 -287.875 493.2578125 C-287.92679123 498.25548528 -287.94193472 503.25207362 -287.9375 508.25 C-287.07213623 508.51627197 -286.20677246 508.78254395 -285.31518555 509.05688477 C-281.96800503 510.23922457 -279.01981695 511.66212111 -275.89453125 513.33984375 C-274.74823242 513.95351807 -273.60193359 514.56719238 -272.42089844 515.19946289 C-271.19705393 515.86175089 -269.97342583 516.52443892 -268.75 517.1875 C-267.4807977 517.87166978 -266.21159194 518.55583313 -264.94238281 519.23999023 C-255.64924208 524.26329149 -246.46389152 529.45282702 -237.36474609 534.81933594 C-203.27271754 554.91381263 -168.97038536 574.78566529 -133.73242188 592.81884766 C-131.85406627 593.78066811 -129.97778857 594.74655641 -128.10351562 595.71630859 C-89.45613328 615.69113844 -48.7829545 631.49191009 -6 639.9375 C-5.03690918 640.12820068 -4.07381836 640.31890137 -3.08154297 640.51538086 C0.29297265 641.14737777 3.67187012 641.71039756 7.0625 642.25 C8.26057281 642.44112366 8.26057281 642.44112366 9.48284912 642.6361084 C23.58882118 644.82987209 37.41853571 645.72835999 51.68896484 645.64111328 C54.82563229 645.62493225 57.96102555 645.64113454 61.09765625 645.66015625 C100.45308895 645.70273411 134.45948055 632.25760039 162.75 604.625 C163.513125 603.84125 164.27625 603.0575 165.0625 602.25 C165.5575 601.81171875 166.0525 601.3734375 166.5625 600.921875 C180.5717158 588.08009385 188.57144684 569.33493987 193.0625 551.25 C193.2375708 550.63133057 193.4126416 550.01266113 193.59301758 549.37524414 C197.11433688 533.43500259 193.90977825 515.74348173 185.75390625 501.84375 C174.21979336 484.1563344 157.38279322 474.86085274 137.0625 470.25 C125.02137581 467.74405253 113.34534854 466.74443639 101.0625 466.875 C99.86477463 466.88247757 99.86477463 466.88247757 98.64285278 466.8901062 C64.86870952 467.13531108 33.79198551 473.66762804 2.9765625 487.53515625 C2.1510791 487.90584229 1.3255957 488.27652832 0.47509766 488.65844727 C-1.08967415 489.36641071 -2.65022544 490.08380715 -4.20556641 490.81225586 C-7.754942 492.44463961 -9.96363818 493.25 -13.9375 493.25 C-13.01268208 487.4185092 -8.43387822 484.62084067 -3.9375 481.25 C5.83665125 474.71854307 16.09689263 469.46851871 27.0625 465.25 C28.68478516 464.60804688 28.68478516 464.60804688 30.33984375 463.953125 C46.72036404 457.76025618 63.73218649 454.42499103 81.0625 452.25 C81.77559326 452.15428711 82.48868652 452.05857422 83.22338867 451.95996094 C115.563709 447.90879947 156.1196228 451.09425981 183.0625 471.25 C186.55634736 474.10065013 189.8415964 477.09562108 193.0625 480.25 C193.67738281 480.82878906 194.29226563 481.40757812 194.92578125 482.00390625 C199.09534429 486.28849172 201.91764075 491.21886795 204.75 496.4375 C205.11875244 497.1078125 205.48750488 497.778125 205.86743164 498.46875 C211.72354528 509.69726309 213.72907142 520.43608888 213.58398438 532.93310547 C213.56258138 535.11669765 213.58387723 537.29697697 213.609375 539.48046875 C213.66171153 564.94667096 201.66425965 589.38696619 185.0625 608.25 C184.37671875 609.06855469 183.6909375 609.88710938 182.984375 610.73046875 C164.74542281 631.97547047 139.10438621 647.6907319 112.078125 654.71630859 C110.20958255 655.2110559 108.35396683 655.75394235 106.5 656.30078125 C102.71065759 657.39613804 98.90267214 658.35448302 95.0625 659.25 C94.29873047 659.43481934 93.53496094 659.61963867 92.74804688 659.81005859 C35.76238341 673.04768026 -30.49513526 659.53564843 -84.9375 641.25 C-86.39833008 640.77022705 -86.39833008 640.77022705 -87.88867188 640.28076172 C-132.43082979 625.54929388 -174.37651136 603.19771786 -213.9375 578.25 C-215.26950439 577.41082031 -215.26950439 577.41082031 -216.62841797 576.5546875 C-228.06465506 569.3383045 -239.41626196 561.99793004 -250.72924805 554.59008789 C-256.89246023 550.5614955 -263.08860762 546.59570341 -269.36474609 542.74511719 C-273.36158361 540.28148526 -277.27485565 537.70582788 -281.17895508 535.09741211 C-282.257845 534.37694199 -283.33673492 533.65647186 -284.44831848 532.91416931 C-285.26974838 532.36499344 -286.09117828 531.81581757 -286.9375 531.25 C-286.98446558 540.0927351 -287.0196873 548.93542532 -287.04112434 557.77825928 C-287.05142861 561.8872121 -287.06533309 565.99607778 -287.08837891 570.10498047 C-287.24619888 593.10494105 -287.24619888 593.10494105 -286.06640625 616.06640625 C-285.98999908 617.00230591 -285.91359192 617.93820557 -285.83486938 618.90246582 C-284.63332863 631.47760736 -280.55774519 642.20704611 -271.1328125 650.91796875 C-261.57544075 658.6312833 -250.54318578 662.19019168 -238.84375 665.171875 C-236.00380238 665.90983512 -233.48894564 666.75713287 -230.9375 668.25 C-230.9375 669.57 -230.9375 670.89 -230.9375 672.25 C-288.0275 672.25 -345.1175 672.25 -403.9375 672.25 C-403.9375 670.6 -403.9375 668.95 -403.9375 667.25 C-398.96007722 665.50790203 -394.08411261 664.02968873 -388.9375 662.875 C-378.86441931 660.36951293 -371.93050978 655.81684977 -365.9375 647.25 C-355.53197206 628.8153729 -356.80665976 607.98392802 -356.40234375 587.44140625 C-356.35923065 585.37775559 -356.31581405 583.31411125 -356.27210999 581.25047302 C-356.15896259 575.86996248 -356.0498851 570.48937718 -355.94171143 565.10876465 C-355.83017879 559.59784835 -355.7147193 554.0870144 -355.59960938 548.57617188 C-355.37510504 537.80085745 -355.15490858 527.02545977 -354.9375 516.25 C-356.54818359 517.06404297 -356.54818359 517.06404297 -358.19140625 517.89453125 C-359.62754949 518.61729615 -361.0637505 519.33994628 -362.5 520.0625 C-363.55670898 520.59713867 -363.55670898 520.59713867 -364.63476562 521.14257812 C-370.5513749 524.1145155 -376.42584205 527.0580668 -382.8984375 528.6015625 C-383.78273438 528.81296875 -384.66703125 529.024375 -385.578125 529.2421875 C-386.48046875 529.45101562 -387.3828125 529.65984375 -388.3125 529.875 C-389.20710938 530.0915625 -390.10171875 530.308125 -391.0234375 530.53125 C-406.68728857 534.21954051 -427.9916998 536.5354001 -442.8125 529.125 C-448.2906162 525.7049606 -452.43959737 521.18067906 -455.375 515.4375 C-456.78598104 507.44194077 -456.79876809 501.16957105 -452.3515625 494.17578125 C-450.41169939 491.53392348 -448.42621397 489.39145155 -445.9375 487.25 C-445.4321875 486.78078125 -444.926875 486.3115625 -444.40625 485.828125 C-439.98925068 482.06980102 -435.2447601 479.96539221 -429.875 477.9375 C-428.86602661 477.55573608 -428.86602661 477.55573608 -427.83666992 477.16625977 C-410.21185506 470.83735877 -388.93311483 473.64791235 -370.9375 477.25 C-365.9875 478.24 -361.0375 479.23 -355.9375 480.25 C-355.6075 401.05 -355.2775 321.85 -354.9375 240.25 C-361.2075 238.93 -367.4775 237.61 -373.9375 236.25 C-377.29481306 235.36499804 -380.57348632 234.47654942 -383.875 233.4375 C-384.6887207 233.18669678 -385.50244141 232.93589355 -386.34082031 232.67749023 C-418.18635843 222.73721151 -448.33393237 210.39155598 -472.9375 187.25 C-473.62457031 186.63898438 -474.31164062 186.02796875 -475.01953125 185.3984375 C-489.95504107 171.55289585 -498.28618505 151.05154122 -499.17578125 130.9453125 C-499.75624494 106.96065731 -492.68933555 85.62714147 -476.9375 67.25 C-476.5146875 66.4971875 -476.091875 65.744375 -475.65625 64.96875 C-465.84562636 49.45012715 -447.74692015 38.69503203 -431.9375 30.25 C-430.78121094 29.61964844 -430.78121094 29.61964844 -429.6015625 28.9765625 C-426.38358613 27.28489903 -423.18133044 25.94606629 -419.72265625 24.82421875 C-416.75680394 23.85228769 -413.80218887 22.85990324 -410.859375 21.8203125 C-382.95035184 12.08212829 -355.62130874 9.0625615 -326.19042969 9.06469727 C-322.84036401 9.06251812 -319.49063244 9.04432417 -316.140625 9.02539062 C-299.1218078 8.98030975 -282.39582891 9.98202216 -265.625 13 C-264.67463867 13.17063965 -263.72427734 13.3412793 -262.74511719 13.51708984 C-237.9318931 18.14252303 -213.84746141 25.79593155 -191.375 37.375 C-190.46621094 37.84115723 -189.55742187 38.30731445 -188.62109375 38.78759766 C-180.22456939 43.29042127 -172.26812226 49.07529477 -165.9375 56.25 C-165.9375 56.91 -165.9375 57.57 -165.9375 58.25 C-171.30483186 56.70057884 -175.88192002 54.22769194 -180.75 51.5625 C-202.41643681 40.00997751 -224.99379633 33.57031302 -249.0625 28.9375 C-250.29814697 28.69507568 -251.53379395 28.45265137 -252.80688477 28.20288086 C-271.52375139 24.7654855 -290.35921665 23.92776263 -309.35644531 24.04418945 C-312.46427531 24.06265912 -315.57180774 24.06469646 -318.6796875 24.06445312 C-332.54876881 24.0882509 -346.40485633 24.24291141 -360.125 26.5 C-360.91269775 26.62858398 -361.70039551 26.75716797 -362.51196289 26.88964844 C-384.74622274 30.69232821 -406.11484017 37.44140124 -425.9375 48.25 C-426.87746826 48.75515137 -426.87746826 48.75515137 -427.83642578 49.27050781 C-435.36887813 53.33799308 -442.42406066 57.67034577 -448.9375 63.25 C-449.82050781 63.97703125 -450.70351563 64.7040625 -451.61328125 65.453125 C-465.93879059 77.73779414 -477.36003651 96.45912652 -479.26953125 115.57373047 C-479.44682554 119.18056127 -479.50713243 122.76384966 -479.5 126.375 C-479.49758301 127.65093018 -479.49516602 128.92686035 -479.49267578 130.24145508 C-479.29079347 140.64103296 -477.57641716 148.98287912 -472.9375 158.25 C-472.27041016 159.62865234 -472.27041016 159.62865234 -471.58984375 161.03515625 C-452.88287932 195.44942608 -409.98963087 211.58949535 -374.6875 222.125 C-370.36959029 223.38512467 -366.10514445 224.44339601 -361.69238281 225.31298828 C-360.79964661 225.48951935 -359.9069104 225.66605042 -358.98712158 225.84793091 C-357.9725589 226.04695511 -357.9725589 226.04695511 -356.9375 226.25 C-356.88614311 219.29812838 -356.85149567 212.34630692 -356.82763672 205.39428711 C-356.81767412 203.03684664 -356.80409917 200.67941821 -356.78662109 198.32202148 C-356.60824474 173.61689688 -356.75136413 148.65560774 -372.25 127.9375 C-383.15484549 117.03265451 -397.19840719 113.5506452 -411.9375 111.25 C-411.9375 109.27 -411.9375 107.29 -411.9375 105.25 C-411.29880187 105.25509872 -410.66010374 105.26019743 -410.00205112 105.26545066 C-372.12381339 105.56541226 -334.24625519 105.76600297 -296.36687379 105.83805899 C-291.81586996 105.84680184 -287.26486823 105.85637255 -282.71386719 105.86645508 C-281.80786802 105.86844836 -280.90186886 105.87044164 -279.96841517 105.87249533 C-265.30986357 105.90671852 -250.65250543 106.0079605 -235.99448952 106.13409772 C-220.94704299 106.26208955 -205.90057327 106.31776608 -190.85258031 106.30671436 C-181.57067446 106.30216489 -172.2925805 106.35359703 -163.01148358 106.47731743 C-156.64163396 106.5568188 -150.27407239 106.56588892 -143.9039 106.52035638 C-140.23005222 106.49615324 -136.56306545 106.50224244 -132.89009094 106.59227943 C-118.47492969 107.49777772 -118.47492969 107.49777772 -105.60666561 102.37578988 C-101.70547759 97.89023373 -99.18013019 92.94809059 -96.91387796 87.48593676 C-95.57972763 84.43068983 -93.86449803 81.89767561 -91.94140625 79.1796875 C-91.08409912 77.91282104 -91.08409912 77.91282104 -90.20947266 76.62036133 C-89.64534668 75.79689209 -89.0812207 74.97342285 -88.5 74.125 C-87.56486572 72.75734497 -87.56486572 72.75734497 -86.61083984 71.36206055 C-80.68067738 62.75979422 -74.42764383 54.43594839 -67.9375 46.25 C-67.12667969 45.22519531 -66.31585937 44.20039062 -65.48046875 43.14453125 C-58.00002813 33.85620831 -50.27220807 24.72780378 -40.9375 17.25 C-40.03257812 16.51910156 -39.12765625 15.78820312 -38.1953125 15.03515625 C-26.49832904 5.9054328 -15.01173685 -0.18878663 0 0 Z " fill="#020202" transform="translate(665.9375,25.75)"/>
<path d="M0 0 C3.99261376 0.00686906 7.98475488 -0.02030562 11.97729492 -0.0456543 C36.88113651 -0.10708587 61.41007898 1.68025409 85.7253418 7.31567383 C80.82048342 17.52548478 75.4723795 27.41964382 69.85961914 37.25708008 C65.87453539 44.25238034 61.98538238 51.29279719 58.1628418 58.37817383 C57.62949219 59.36640137 57.09614258 60.35462891 56.54663086 61.37280273 C55.47528197 63.3592486 54.40431679 65.34590146 53.33374023 67.33276367 C50.66064905 72.29023605 47.9771678 77.24199267 45.2878418 82.19067383 C44.81596436 83.06344971 44.34408691 83.93622559 43.85791016 84.83544922 C42.95038672 86.50409023 42.03352848 88.16769354 41.10668945 89.82568359 C40.14562095 91.55808685 39.21507288 93.30762886 38.30883789 95.06933594 C35.9917346 99.35268898 34.60420049 101.83566655 30.2565918 104.21020508 C28.92388271 104.56117542 27.57801125 104.86439543 26.2253418 105.12817383 C25.45818848 105.30791748 24.69103516 105.48766113 23.90063477 105.67285156 C21.1845226 106.27984359 18.46093478 106.80371803 15.7253418 107.31567383 C14.6725 107.51999023 13.6196582 107.72430664 12.53491211 107.93481445 C-7.02581475 111.65905983 -26.75159918 113.95744184 -46.5534668 115.9387207 C-48.72471439 116.158666 -50.89503678 116.38913256 -53.06225586 116.64575195 C-62.42912221 117.68671709 -71.86451253 117.3986232 -81.2746582 117.31567383 C-81.91206099 25.54990738 -81.91206099 25.54990738 -71.88012695 13.66333008 C-54.56057922 -2.89769732 -21.78774014 -0.04052501 0 0 Z " fill="#FDFDFD" transform="translate(459.274658203125,145.684326171875)"/>
<path d="M0 0 C-0.61449268 4.63010502 -2.54005741 8.39480441 -4.68359375 12.4765625 C-5.05441071 13.19453506 -5.42522766 13.91250763 -5.80728149 14.65223694 C-7.01131555 16.97967959 -8.22420609 19.30237305 -9.4375 21.625 C-10.27382927 23.23648956 -11.10968371 24.84822563 -11.94506836 26.46020508 C-13.95032468 30.32556708 -15.962788 34.18710599 -17.97937012 38.04656982 C-18.83914826 39.69213851 -19.69756322 41.33841933 -20.55566406 42.98486328 C-24.2783801 50.1241415 -28.05856689 57.23245284 -31.84249878 64.33943176 C-33.64551153 67.72601527 -35.44785891 71.11295258 -37.25 74.5 C-37.79346069 75.52110367 -37.79346069 75.52110367 -38.34790039 76.56283569 C-45.66840356 90.32222472 -52.86155039 104.14533175 -60 118 C-63.79164893 118.02994619 -67.5832663 118.04710433 -71.375 118.0625 C-72.93734375 118.07506836 -72.93734375 118.07506836 -74.53125 118.08789062 C-84.09317211 118.1166916 -93.39623373 117.53354257 -103 117 C-103 100.5 -103 84 -103 67 C-103.66 67 -104.32 67 -105 67 C-105 66.34 -105 65.68 -105 65 C-104.34 65 -103.68 65 -103 65 C-103 45.2 -103 25.4 -103 5 C-98.36710937 4.97421875 -93.73421875 4.9484375 -88.9609375 4.921875 C-85.95307644 4.89658727 -82.94530446 4.87016445 -79.9375 4.83984375 C-75.20605664 4.79224971 -70.47482036 4.74794307 -65.74316406 4.72900391 C-45.73932585 4.64347489 -26.39905126 3.55964607 -6.63076782 0.35528564 C-4 0 -4 0 0 0 Z " fill="#FBFBFB" transform="translate(481,268)"/>
<path d="M0 0 C5.66042353 3.37515937 7.89221713 7.65326962 9.8605957 13.74633789 C10.95428567 18.13571369 10.98706448 22.43347659 10.9375 26.9375 C10.93065186 27.90099365 10.92380371 28.8644873 10.91674805 29.85717773 C10.73098889 38.20103361 9.29771774 45.4163098 6.5 53.3125 C6.149375 54.33601563 5.79875 55.35953125 5.4375 56.4140625 C1.71479777 66.62564152 -3.04299943 76.40805428 -7.5 86.3125 C-35.88 86.3125 -64.26 86.3125 -93.5 86.3125 C-92.0884488 82.78362201 -90.86386187 80.05673699 -88.91796875 76.8984375 C-88.40476074 76.06449463 -87.89155273 75.23055176 -87.36279297 74.37133789 C-86.80994629 73.48567139 -86.25709961 72.60000488 -85.6875 71.6875 C-85.1114502 70.76251709 -84.53540039 69.83753418 -83.94189453 68.88452148 C-31.56682779 -14.6011357 -31.56682779 -14.6011357 0 0 Z " fill="#FDFDFD" transform="translate(679.5,43.6875)"/>
<path d="M0 0 C6.20511676 0.56993036 11.6896972 1.93914686 17.5625 4 C18.86815918 4.45705322 18.86815918 4.45705322 20.20019531 4.92333984 C28.49065675 7.95891951 35.65846281 12.15693909 43 17 C44.64326623 18.02496056 46.28857411 19.04666957 47.9375 20.0625 C48.948125 20.701875 49.95875 21.34125 51 22 C46.02747128 34.62033606 25.85162249 44.11251625 15 51 C14.26233398 51.46825195 13.52466797 51.93650391 12.76464844 52.41894531 C-3.11376292 62.37734944 -20.28656278 70.84619552 -38 77 C-36.61389848 72.5442216 -34.87252555 68.44459215 -32.83203125 64.25 C-32.52023926 63.60691391 -32.20844727 62.96382782 -31.88720703 62.30125427 C-30.86629792 60.19886592 -29.83972619 58.09930825 -28.8125 56 C-28.09781429 54.53397752 -27.38321587 53.06791248 -26.66870117 51.60180664 C-24.45405804 47.06380406 -22.22883809 42.53104497 -20 38 C-19.64373535 37.27544617 -19.2874707 36.55089233 -18.92041016 35.80438232 C-16.87978958 31.65705342 -14.83209079 27.51332859 -12.77474976 23.37426758 C-12.14042181 22.09752441 -11.50727587 20.82019321 -10.87539673 19.54223633 C-7.54176099 12.80745665 -4.12524793 6.28498226 0 0 Z " fill="#FCFCFC" transform="translate(571,158)"/>
<path d="M0 0 C0 2.97 0 5.94 0 9 C-23.57939482 20.63096219 -51.64886572 31.72074575 -78 23 C-81.62004925 20.8879476 -83.66821015 19.49768477 -86 16 C-86.77730754 11.31979042 -86.79672092 6.50065264 -84.375 2.3125 C-79.37911556 -3.69683529 -70.34126352 -7.73310431 -62.67578125 -8.68359375 C-40.95338623 -10.48111848 -20.21185192 -8.34753349 0 0 Z " fill="#FCFCFC" transform="translate(310,523)"/>
<path d="M0 0 C1.24394531 0.00322266 2.48789062 0.00644531 3.76953125 0.00976562 C5.05472656 0.01814453 6.33992188 0.02652344 7.6640625 0.03515625 C8.97246094 0.03966797 10.28085937 0.04417969 11.62890625 0.04882812 C14.84900531 0.06058031 18.0690102 0.07701082 21.2890625 0.09765625 C20.08050449 4.01713122 18.69193635 7.42800149 16.59375 10.94921875 C16.05008789 11.87017334 15.50642578 12.79112793 14.94628906 13.73999023 C14.3581543 14.72427002 13.77001953 15.7085498 13.1640625 16.72265625 C11.90479916 18.85070464 10.64705241 20.97965101 9.390625 23.109375 C8.72708008 24.2339209 8.06353516 25.3584668 7.37988281 26.51708984 C5.17353468 30.27902932 3.02074444 34.07043959 0.875 37.8671875 C0.51191742 38.50851624 0.14883484 39.14984497 -0.22525024 39.81060791 C-1.66043223 42.34654183 -3.09513891 44.88267174 -4.52008057 47.42437744 C-5.51130908 49.19180235 -6.50940474 50.95537066 -7.5078125 52.71875 C-8.07854492 53.73380615 -8.64927734 54.7488623 -9.23730469 55.79467773 C-10.7109375 58.09765625 -10.7109375 58.09765625 -12.7109375 59.09765625 C-12.7109375 58.43765625 -12.7109375 57.77765625 -12.7109375 57.09765625 C-13.3709375 57.09765625 -14.0309375 57.09765625 -14.7109375 57.09765625 C-14.7109375 56.43765625 -14.7109375 55.77765625 -14.7109375 55.09765625 C-14.0509375 55.09765625 -13.3909375 55.09765625 -12.7109375 55.09765625 C-12.7109375 37.27765625 -12.7109375 19.45765625 -12.7109375 1.09765625 C-8.19620324 0.34520054 -4.50355071 -0.02065849 0 0 Z " fill="#F3F3F3" transform="translate(390.7109375,400.90234375)"/>
</svg>
