<?xml version="1.0" encoding="UTF-8"?>
<svg version="1.1" xmlns="http://www.w3.org/2000/svg" width="952" height="784">
<path d="M0 0 C1.06471576 -0.00205263 2.12943153 -0.00410527 3.2264114 -0.0062201 C6.81231416 -0.01189745 10.39817861 -0.01043194 13.98408508 -0.00901413 C16.5737856 -0.01159735 19.16348571 -0.01461038 21.75318527 -0.01801753 C28.13584835 -0.02559397 34.51850306 -0.02779041 40.90117017 -0.02834659 C48.54596261 -0.02926058 56.19074732 -0.03592922 63.83553643 -0.04269341 C82.3132912 -0.05875249 100.79104515 -0.06465668 119.26880565 -0.06944216 C128.0109282 -0.07177829 136.75305009 -0.07538097 145.49517213 -0.07913754 C175.42316716 -0.09197322 205.35116182 -0.10269219 235.27915955 -0.10614014 C237.15784125 -0.10636177 239.03652294 -0.10658355 240.91520464 -0.10680549 C242.79841399 -0.10702613 244.68162334 -0.10724661 246.56483269 -0.10746694 C250.34284846 -0.10790949 254.12086423 -0.1083566 257.89888 -0.10880661 C258.83560811 -0.108916 259.77233622 -0.10902539 260.73745003 -0.1091381 C291.10714396 -0.11276829 321.47681402 -0.1286868 351.8464988 -0.15199697 C383.95851637 -0.17659938 416.0705203 -0.19031318 448.18254757 -0.19150805 C451.70848529 -0.19167951 455.234423 -0.19189493 458.76036072 -0.19214249 C459.62853945 -0.19219826 460.49671817 -0.19225402 461.39120535 -0.19231148 C475.35607491 -0.1934616 489.32091994 -0.2044803 503.28578123 -0.21902954 C517.32598012 -0.23340417 531.36614763 -0.23662607 545.40635186 -0.22858956 C553.74405784 -0.2241378 562.08166239 -0.22797574 570.41935501 -0.24382807 C576.65060082 -0.25474577 582.88174239 -0.24992278 589.11298621 -0.2390562 C591.62986436 -0.23709664 594.1467527 -0.24018953 596.66361654 -0.24890056 C626.79393338 -0.34656491 650.55301232 6.54082215 672.47749329 28.13142776 C691.29646224 48.08391864 696.26158049 72.794345 696.10568237 99.37181473 C696.11073785 101.66536683 696.11797435 103.95891497 696.12718052 106.25245416 C696.14598671 112.50471457 696.1339348 118.75658008 696.11645758 125.00883007 C696.10440724 131.07490113 696.11598246 137.14088936 696.12672889 143.20695512 C696.14910372 156.36683148 696.14323792 169.52657879 696.12529279 182.68645515 C696.10968824 194.20203321 696.10388158 205.71756615 696.10763359 217.2331543 C696.10798879 218.38162823 696.10798879 218.38162823 696.10835117 219.55330366 C696.10932619 222.66177336 696.11034701 225.77024304 696.11143627 228.87871271 C696.12150494 258.00035829 696.10329453 287.1219247 696.07171592 316.24355167 C696.04385249 342.08608785 696.03889579 367.92852992 696.0539093 393.7710762 C696.0577321 400.39091169 696.06152701 407.01074717 696.06507969 413.63058281 C696.0655175 414.44570087 696.06595532 415.26081892 696.0664064 416.10063753 C696.07765852 437.73088459 696.07028835 459.36112479 696.05719894 480.99136961 C696.05581045 483.32012851 696.05442974 485.64888742 696.05306052 487.97764634 C696.05215114 489.52230831 696.05122847 491.06697026 696.05029242 492.61163221 C696.04351138 504.11810408 696.0461438 515.62454871 696.05323982 527.13101959 C696.06122371 540.21968122 696.05457743 553.30824828 696.02906478 566.39688922 C696.01640948 573.07040887 696.01039423 579.7437517 696.02160645 586.41728783 C696.03168855 592.5338006 696.02310447 598.65000091 696.00002526 604.76647584 C695.99489011 606.97143953 695.99638384 609.1764315 696.00541992 611.38138266 C696.0987908 636.24632087 690.97623786 656.29303471 675.47749329 676.13142776 C674.86776672 676.91517776 674.25804016 677.69892776 673.62983704 678.50642776 C660.20852811 694.75160547 639.29607675 705.56920621 618.47749329 708.13142776 C610.01215123 708.69754614 601.50835556 708.54131991 593.02905273 708.51910782 C590.43458396 708.5232841 587.84011702 708.52876323 585.24565345 708.53542763 C579.61983505 708.54775275 573.9941001 708.54902503 568.36827278 708.5428772 C560.00210237 708.53375935 551.63600869 708.54183962 543.26984415 708.55316844 C528.3241131 708.57280839 513.37841679 708.57518787 498.43267592 708.56997324 C485.35134071 708.56541151 472.27001923 708.56602092 459.18868446 708.57181358 C457.43222278 708.57257046 455.67576109 708.57332644 453.9192994 708.57408153 C451.2722845 708.57522675 448.62526961 708.57637664 445.97825472 708.57754077 C421.37690625 708.5882418 396.77556233 708.59297512 372.17421246 708.58507061 C371.24734629 708.58477344 370.32048012 708.58447626 369.3655271 708.58417008 C361.8393055 708.58172129 354.31308395 708.57910963 346.7868624 708.57648595 C317.43412453 708.5663848 288.08144388 708.57473805 258.72871399 708.5979805 C225.72891535 708.62406872 192.72915114 708.63689684 159.7293418 708.62979275 C156.20881101 708.62907672 152.68828021 708.62840233 149.1677494 708.6277523 C147.86754272 708.62749759 147.86754272 708.62749759 146.54106924 708.62723773 C133.47244177 708.62493746 120.40384634 708.63289874 107.33522606 708.64604378 C92.46780295 708.66097172 77.60045479 708.66177583 62.73303326 708.64397287 C54.42033278 708.63442783 46.10780725 708.63580784 37.79511854 708.65320756 C31.57747485 708.66497248 25.36002586 708.65567706 19.14239881 708.63838518 C16.63512976 708.63462513 14.12783943 708.6375472 11.62058934 708.64799684 C-7.30452952 708.72123556 -23.55528625 707.16236769 -40.52250671 698.13142776 C-41.35781921 697.70345901 -42.19313171 697.27549026 -43.05375671 696.83455276 C-63.77789306 685.39590608 -78.33628147 666.03658996 -84.96000671 643.50642776 C-86.90577979 636.15960746 -87.66994745 629.3449047 -87.6595211 621.77857304 C-87.66217293 620.84029491 -87.66482476 619.90201678 -87.66755694 618.93530598 C-87.67523926 615.77946316 -87.67580871 612.62365932 -87.67640686 609.46780777 C-87.6804222 607.18690564 -87.68486054 604.90600421 -87.68968642 602.62510365 C-87.70165005 596.34746847 -87.7072999 590.06984098 -87.71186757 583.79219663 C-87.71721298 577.71974838 -87.72719018 571.64730915 -87.73687703 565.57486658 C-87.76370791 548.53088451 -87.77876138 531.48689673 -87.79221815 514.44289973 C-87.79588958 509.82443082 -87.79989242 505.20596223 -87.80397081 500.58749366 C-87.8292355 471.90300821 -87.85127704 443.21852218 -87.86369896 414.53402805 C-87.86662014 407.88965541 -87.8695877 401.24528279 -87.87260437 394.60091019 C-87.87297528 393.77545423 -87.87334619 392.94999828 -87.87372834 392.09952851 C-87.88587592 365.35389609 -87.91680737 338.6083296 -87.95852589 311.86272813 C-88.00135929 284.35206017 -88.02794585 256.84142701 -88.03317367 229.33072481 C-88.03391406 225.44097585 -88.03482473 221.55122694 -88.03583145 217.66147804 C-88.03602207 216.89598957 -88.03621268 216.13050109 -88.03640907 215.34181599 C-88.03991567 203.0478874 -88.06018137 190.75404165 -88.08662809 178.46014343 C-88.11283856 166.08895201 -88.12047243 153.71785582 -88.1095268 141.34664062 C-88.10409443 134.65063378 -88.10717056 127.95492092 -88.13199234 121.25893593 C-88.15456229 115.1189476 -88.15368439 108.97940873 -88.13478847 102.83941212 C-88.13199934 100.62795632 -88.13752581 98.41646954 -88.15260141 96.20506338 C-88.30949185 71.67478845 -83.07979045 49.86360894 -66.52250671 31.13142776 C-66.07906921 30.54619339 -65.63563171 29.96095901 -65.17875671 29.35799026 C-50.11854871 9.79808597 -23.94339189 -0.04282237 0 0 Z " fill="#FEFEFE" transform="translate(172.5225067138672,37.86857223510742)"/>
<path d="M0 0 C0.79269287 0.00821777 1.58538574 0.01643555 2.40209961 0.02490234 C12.16823521 0.21191987 19.50637763 1.60459671 27.0625 8.25 C34.80371558 17.07060075 36.58646915 27.1999503 36.375 38.625 C36.36227051 39.64158691 36.34954102 40.65817383 36.33642578 41.70556641 C35.89662211 64.368177 27.06080143 86.48660813 14.5 105.25 C10.70672282 111.26483793 9.99347379 115.27887113 11.0625 122.25 C11.33900391 124.05984375 11.33900391 124.05984375 11.62109375 125.90625 C12.21993301 129.5518622 12.90922108 133.17750777 13.60498047 136.80566406 C14.24409914 140.22020843 14.81928473 143.64464061 15.39819336 147.06982422 C19.45994293 170.96613889 24.14875968 194.57506417 30.16674805 218.05322266 C30.45464958 219.19448105 30.45464958 219.19448105 30.74836731 220.35879517 C31.10633029 221.77676412 31.47087069 223.19309732 31.84355164 224.60726929 C32.92256925 228.90464816 33.22339748 232.82782201 33.0625 237.25 C31.4125 237.58 29.7625 237.91 28.0625 238.25 C22.98743786 232.65501559 18.97613857 226.68351022 14.9375 220.3125 C5.68112549 205.94142027 -4.03669676 192.54182964 -15.9375 180.25 C-16.41638672 179.75064941 -16.89527344 179.25129883 -17.38867188 178.73681641 C-22.26310317 173.66656632 -26.96733034 169.0151289 -32.9375 165.25 C-36.45451044 168.29337293 -39.96383601 171.3361086 -43.35546875 174.51953125 C-67.6920393 197.30975389 -97.04173721 213.78210085 -127.92578125 225.875 C-129.47084351 226.49967163 -129.47084351 226.49967163 -131.04711914 227.13696289 C-133.9375 228.25 -133.9375 228.25 -136.46655273 228.95483398 C-142.03988578 230.7214687 -143.98570057 233.41648433 -146.74609375 238.53515625 C-148.00597425 241.10561966 -149.19134255 243.70628176 -150.375 246.3125 C-151.02812724 247.69162615 -151.68449026 249.0692243 -152.34399414 250.4453125 C-153.64263461 253.15921438 -154.9296325 255.87809019 -156.20703125 258.60205078 C-158.30437374 263.05219231 -160.55351915 267.41302003 -162.875 271.75 C-163.25479004 272.46454346 -163.63458008 273.17908691 -164.02587891 273.9152832 C-164.84810753 275.46059821 -165.67191621 277.00507326 -166.49707031 278.54882812 C-167.89086059 281.16253925 -169.27701679 283.78021023 -170.66137695 286.39892578 C-181.90928369 307.6706287 -193.50476727 328.69902117 -205.8894043 349.3359375 C-206.40543213 350.19960938 -206.92145996 351.06328125 -207.453125 351.953125 C-207.90977539 352.71270508 -208.36642578 353.47228516 -208.83691406 354.25488281 C-210.07198422 356.35121632 -210.07198422 356.35121632 -210.9375 359.25 C-205.32192677 359.00897829 -199.70675426 358.76033793 -194.09179688 358.50537109 C-192.19149363 358.42006831 -190.29110421 358.33665905 -188.390625 358.25537109 C-178.27552754 357.8214077 -168.18560978 357.2796893 -158.10546875 356.31640625 C-157.31251404 356.24378571 -156.51955933 356.17116516 -155.70257568 356.09634399 C-138.09329811 354.29849167 -121.02959827 347.5110011 -108.9375 334.25 C-98.86437754 321.65859693 -92.09324632 306.92305538 -88.8125 291.125 C-87.9375 287.25 -87.9375 287.25 -85.9375 285.25 C-84.6175 285.25 -83.2975 285.25 -81.9375 285.25 C-80.51070484 288.10359032 -80.80821777 290.52280522 -80.80378723 293.71417236 C-80.80152167 294.38543396 -80.79925612 295.05669555 -80.79692191 295.74829841 C-80.79056778 298.00832297 -80.79141218 300.26828778 -80.79223633 302.52832031 C-80.78924564 304.14447609 -80.78584333 305.76063116 -80.78205872 307.37678528 C-80.77320348 311.77569356 -80.77087991 316.1745824 -80.77024293 320.57349873 C-80.76929466 324.24386544 -80.76561716 327.91422761 -80.76207083 331.58459258 C-80.75391985 340.24536223 -80.75148712 348.90612149 -80.75219727 357.56689453 C-80.75279766 366.50206778 -80.74225489 375.43718058 -80.7264536 384.37233853 C-80.71337617 392.04035261 -80.70801348 399.70834695 -80.70865268 407.3763721 C-80.70890768 411.95741062 -80.70605532 416.53839549 -80.69547462 421.11942291 C-80.6857907 425.4302165 -80.6857165 429.7409052 -80.69299126 434.0517025 C-80.69403686 435.63271678 -80.69167566 437.2137376 -80.6856308 438.79474068 C-80.67790403 440.95591456 -80.68256008 443.11672687 -80.69026184 445.27789307 C-80.68971707 446.48653141 -80.68917231 447.69516975 -80.68861103 448.9404335 C-80.94457566 452.34408757 -81.71815894 455.07423977 -82.9375 458.25 C-87.8125 456.5 -87.8125 456.5 -88.9375 454.25 C-89.24758933 452.16108744 -89.55400887 450.07152725 -89.83691406 447.97875977 C-92.42453812 429.22208926 -99.46851743 413.76615939 -112.9375 400.25 C-113.84048828 399.31220703 -113.84048828 399.31220703 -114.76171875 398.35546875 C-128.88083687 384.7876394 -148.19594907 380.52320176 -166.9375 378.25 C-167.57400482 378.17245987 -168.21050964 378.09491974 -168.86630249 378.01502991 C-177.92229839 376.95521094 -186.98162753 376.46363779 -196.09277344 376.18579102 C-198.23725421 376.10367373 -200.38070371 375.98748843 -202.52148438 375.8371582 C-214.31291494 374.6521337 -214.31291494 374.6521337 -224.8661499 378.82830811 C-228.36562618 383.04491483 -230.5779988 387.85923926 -232.79388428 392.83651733 C-234.54640182 396.5350243 -236.80945001 399.80907638 -239.1484375 403.15625 C-240.00357974 404.41730775 -240.85774799 405.67902653 -241.7109375 406.94140625 C-242.57765621 408.21125759 -243.4448524 409.48078316 -244.3125 410.75 C-244.76560547 411.41499512 -245.21871094 412.07999023 -245.68554688 412.76513672 C-273.14861376 453.06420226 -273.14861376 453.06420226 -282.43048096 460.43569946 C-285.83648968 463.32209283 -287.32244486 465.36608981 -287.71044922 469.87841797 C-287.75109924 471.66591029 -287.76006199 473.45432237 -287.7421875 475.2421875 C-287.75589386 476.18812775 -287.76960022 477.13406799 -287.78372192 478.1086731 C-287.82095791 481.11460202 -287.81731134 484.11887357 -287.8125 487.125 C-287.83063123 489.16929658 -287.85143526 491.21357133 -287.875 493.2578125 C-287.92679123 498.25548528 -287.94193472 503.25207362 -287.9375 508.25 C-287.07213623 508.51627197 -286.20677246 508.78254395 -285.31518555 509.05688477 C-281.96800503 510.23922457 -279.01981695 511.66212111 -275.89453125 513.33984375 C-274.74823242 513.95351807 -273.60193359 514.56719238 -272.42089844 515.19946289 C-271.19705393 515.86175089 -269.97342583 516.52443892 -268.75 517.1875 C-267.4807977 517.87166978 -266.21159194 518.55583313 -264.94238281 519.23999023 C-255.64924208 524.26329149 -246.46389152 529.45282702 -237.36474609 534.81933594 C-203.27271754 554.91381263 -168.97038536 574.78566529 -133.73242188 592.81884766 C-131.85406627 593.78066811 -129.97778857 594.74655641 -128.10351562 595.71630859 C-89.45613328 615.69113844 -48.7829545 631.49191009 -6 639.9375 C-5.03690918 640.12820068 -4.07381836 640.31890137 -3.08154297 640.51538086 C0.29297265 641.14737777 3.67187012 641.71039756 7.0625 642.25 C8.26057281 642.44112366 8.26057281 642.44112366 9.48284912 642.6361084 C23.58882118 644.82987209 37.41853571 645.72835999 51.68896484 645.64111328 C54.82563229 645.62493225 57.96102555 645.64113454 61.09765625 645.66015625 C100.45308895 645.70273411 134.45948055 632.25760039 162.75 604.625 C163.513125 603.84125 164.27625 603.0575 165.0625 602.25 C165.5575 601.81171875 166.0525 601.3734375 166.5625 600.921875 C180.5717158 588.08009385 188.57144684 569.33493987 193.0625 551.25 C193.2375708 550.63133057 193.4126416 550.01266113 193.59301758 549.37524414 C197.11433688 533.43500259 193.90977825 515.74348173 185.75390625 501.84375 C174.21979336 484.1563344 157.38279322 474.86085274 137.0625 470.25 C125.02137581 467.74405253 113.34534854 466.74443639 101.0625 466.875 C99.86477463 466.88247757 99.86477463 466.88247757 98.64285278 466.8901062 C64.86870952 467.13531108 33.79198551 473.66762804 2.9765625 487.53515625 C2.1510791 487.90584229 1.3255957 488.27652832 0.47509766 488.65844727 C-1.08967415 489.36641071 -2.65022544 490.08380715 -4.20556641 490.81225586 C-7.754942 492.44463961 -9.96363818 493.25 -13.9375 493.25 C-13.01268208 487.4185092 -8.43387822 484.62084067 -3.9375 481.25 C5.83665125 474.71854307 16.09689263 469.46851871 27.0625 465.25 C28.68478516 464.60804688 28.68478516 464.60804688 30.33984375 463.953125 C46.72036404 457.76025618 63.73218649 454.42499103 81.0625 452.25 C81.77559326 452.15428711 82.48868652 452.05857422 83.22338867 451.95996094 C115.563709 447.90879947 156.1196228 451.09425981 183.0625 471.25 C186.55634736 474.10065013 189.8415964 477.09562108 193.0625 480.25 C193.67738281 480.82878906 194.29226563 481.40757812 194.92578125 482.00390625 C199.09534429 486.28849172 201.91764075 491.21886795 204.75 496.4375 C205.11875244 497.1078125 205.48750488 497.778125 205.86743164 498.46875 C211.74568393 509.73971173 213.72586343 520.47906785 213.5 533.125 C213.49218506 533.78496979 213.48437012 534.44493958 213.47631836 535.12490845 C213.04693499 569.56468529 196.42227403 596.48927458 172.7734375 620.58203125 C160.78640898 632.01296051 146.06676706 640.4441106 131.0625 647.25 C130.03898438 647.71921875 129.01546875 648.1884375 127.9609375 648.671875 C114.3142254 654.63081667 100.21040181 658.19537539 85.59155273 660.79150391 C83.8855598 661.10078615 82.18427485 661.43709036 80.48852539 661.79833984 C70.70213909 663.73105021 60.93176174 663.55861396 51 663.5 C49.60563721 663.49534729 49.60563721 663.49534729 48.18310547 663.49060059 C2.54356077 663.3122905 -41.67693478 655.77999866 -84.9375 641.25 C-86.39833008 640.77022705 -86.39833008 640.77022705 -87.88867188 640.28076172 C-132.43082979 625.54929388 -174.37651136 603.19771786 -213.9375 578.25 C-215.26950439 577.41082031 -215.26950439 577.41082031 -216.62841797 576.5546875 C-228.06465506 569.3383045 -239.41626196 561.99793004 -250.72924805 554.59008789 C-256.89246023 550.5614955 -263.08860762 546.59570341 -269.36474609 542.74511719 C-273.36158361 540.28148526 -277.27485565 537.70582788 -281.17895508 535.09741211 C-282.257845 534.37694199 -283.33673492 533.65647186 -284.44831848 532.91416931 C-285.26974838 532.36499344 -286.09117828 531.81581757 -286.9375 531.25 C-286.98446558 540.0927351 -287.0196873 548.93542532 -287.04112434 557.77825928 C-287.05142861 561.8872121 -287.06533309 565.99607778 -287.08837891 570.10498047 C-287.24619888 593.10494105 -287.24619888 593.10494105 -286.06640625 616.06640625 C-285.98999908 617.00230591 -285.91359192 617.93820557 -285.83486938 618.90246582 C-284.63332863 631.47760736 -280.55774519 642.20704611 -271.1328125 650.91796875 C-261.57544075 658.6312833 -250.54318578 662.19019168 -238.84375 665.171875 C-236.00380238 665.90983512 -233.48894564 666.75713287 -230.9375 668.25 C-230.9375 669.57 -230.9375 670.89 -230.9375 672.25 C-288.0275 672.25 -345.1175 672.25 -403.9375 672.25 C-403.9375 670.6 -403.9375 668.95 -403.9375 667.25 C-398.96007722 665.50790203 -394.08411261 664.02968873 -388.9375 662.875 C-378.86441931 660.36951293 -371.93050978 655.81684977 -365.9375 647.25 C-355.53197206 628.8153729 -356.80665976 607.98392802 -356.40234375 587.44140625 C-356.35923065 585.37775559 -356.31581405 583.31411125 -356.27210999 581.25047302 C-356.15896259 575.86996248 -356.0498851 570.48937718 -355.94171143 565.10876465 C-355.83017879 559.59784835 -355.7147193 554.0870144 -355.59960938 548.57617188 C-355.37510504 537.80085745 -355.15490858 527.02545977 -354.9375 516.25 C-356.54818359 517.06404297 -356.54818359 517.06404297 -358.19140625 517.89453125 C-359.62754949 518.61729615 -361.0637505 519.33994628 -362.5 520.0625 C-363.55670898 520.59713867 -363.55670898 520.59713867 -364.63476562 521.14257812 C-370.5513749 524.1145155 -376.42584205 527.0580668 -382.8984375 528.6015625 C-383.78273438 528.81296875 -384.66703125 529.024375 -385.578125 529.2421875 C-386.48046875 529.45101562 -387.3828125 529.65984375 -388.3125 529.875 C-389.20710938 530.0915625 -390.10171875 530.308125 -391.0234375 530.53125 C-406.68728857 534.21954051 -427.9916998 536.5354001 -442.8125 529.125 C-448.2906162 525.7049606 -452.43959737 521.18067906 -455.375 515.4375 C-456.78598104 507.44194077 -456.79876809 501.16957105 -452.3515625 494.17578125 C-450.41169939 491.53392348 -448.42621397 489.39145155 -445.9375 487.25 C-445.4321875 486.78078125 -444.926875 486.3115625 -444.40625 485.828125 C-439.98925068 482.06980102 -435.2447601 479.96539221 -429.875 477.9375 C-428.86602661 477.55573608 -428.86602661 477.55573608 -427.83666992 477.16625977 C-410.21185506 470.83735877 -388.93311483 473.64791235 -370.9375 477.25 C-365.9875 478.24 -361.0375 479.23 -355.9375 480.25 C-355.6075 401.05 -355.2775 321.85 -354.9375 240.25 C-361.2075 238.93 -367.4775 237.61 -373.9375 236.25 C-377.29481306 235.36499804 -380.57348632 234.47654942 -383.875 233.4375 C-384.6887207 233.18669678 -385.50244141 232.93589355 -386.34082031 232.67749023 C-418.34433813 222.68789966 -449.70359892 210.15147446 -473.9375 186.25 C-474.82566406 185.37472656 -475.71382812 184.49945313 -476.62890625 183.59765625 C-492.33944366 167.26349446 -499.34219994 146.85410088 -499.30834961 124.43920898 C-498.68733015 95.06940606 -483.36885048 71.6207939 -462.75390625 51.68359375 C-457.23482865 46.56251967 -451.09806533 42.40282714 -444.74511719 38.39160156 C-443.18330114 37.40523583 -441.64048844 36.38889866 -440.1015625 35.3671875 C-424.64746227 25.62339997 -406.61684952 19.48126063 -388.9375 15.25 C-387.78121094 14.95609375 -386.62492187 14.6621875 -385.43359375 14.359375 C-365.87154319 9.55713876 -346.21702671 9.06324396 -326.19042969 9.06469727 C-322.84036401 9.06251812 -319.49063244 9.04432417 -316.140625 9.02539062 C-299.1218078 8.98030975 -282.39582891 9.98202216 -265.625 13 C-264.67463867 13.17063965 -263.72427734 13.3412793 -262.74511719 13.51708984 C-237.9318931 18.14252303 -213.84746141 25.79593155 -191.375 37.375 C-190.46621094 37.84115723 -189.55742187 38.30731445 -188.62109375 38.78759766 C-180.22456939 43.29042127 -172.26812226 49.07529477 -165.9375 56.25 C-165.9375 56.91 -165.9375 57.57 -165.9375 58.25 C-171.30483186 56.70057884 -175.88192002 54.22769194 -180.75 51.5625 C-202.41643681 40.00997751 -224.99379633 33.57031302 -249.0625 28.9375 C-250.29814697 28.69507568 -251.53379395 28.45265137 -252.80688477 28.20288086 C-271.52375139 24.7654855 -290.35921665 23.92776263 -309.35644531 24.04418945 C-312.46427531 24.06265912 -315.57180774 24.06469646 -318.6796875 24.06445312 C-332.54876881 24.0882509 -346.40485633 24.24291141 -360.125 26.5 C-360.91269775 26.62858398 -361.70039551 26.75716797 -362.51196289 26.88964844 C-384.74622274 30.69232821 -406.11484017 37.44140124 -425.9375 48.25 C-426.87746826 48.75515137 -426.87746826 48.75515137 -427.83642578 49.27050781 C-435.36887813 53.33799308 -442.42406066 57.67034577 -448.9375 63.25 C-449.82050781 63.97703125 -450.70351563 64.7040625 -451.61328125 65.453125 C-465.93879059 77.73779414 -477.36003651 96.45912652 -479.26953125 115.57373047 C-479.44682554 119.18056127 -479.50713243 122.76384966 -479.5 126.375 C-479.49758301 127.65093018 -479.49516602 128.92686035 -479.49267578 130.24145508 C-479.29079347 140.64103296 -477.57641716 148.98287912 -472.9375 158.25 C-472.27041016 159.62865234 -472.27041016 159.62865234 -471.58984375 161.03515625 C-452.88287932 195.44942608 -409.98963087 211.58949535 -374.6875 222.125 C-370.36959029 223.38512467 -366.10514445 224.44339601 -361.69238281 225.31298828 C-360.79964661 225.48951935 -359.9069104 225.66605042 -358.98712158 225.84793091 C-357.9725589 226.04695511 -357.9725589 226.04695511 -356.9375 226.25 C-356.88614311 219.29812838 -356.85149567 212.34630692 -356.82763672 205.39428711 C-356.81767412 203.03684664 -356.80409917 200.67941821 -356.78662109 198.32202148 C-356.60824474 173.61689688 -356.75136413 148.65560774 -372.25 127.9375 C-383.15484549 117.03265451 -397.19840719 113.5506452 -411.9375 111.25 C-411.9375 109.27 -411.9375 107.29 -411.9375 105.25 C-411.29880187 105.25509872 -410.66010374 105.26019743 -410.00205112 105.26545066 C-372.12381339 105.56541226 -334.24625519 105.76600297 -296.36687379 105.83805899 C-291.81586996 105.84680184 -287.26486823 105.85637255 -282.71386719 105.86645508 C-281.80786802 105.86844836 -280.90186886 105.87044164 -279.96841517 105.87249533 C-265.30986357 105.90671852 -250.65250543 106.0079605 -235.99448952 106.13409772 C-220.94704299 106.26208955 -205.90057327 106.31776608 -190.85258031 106.30671436 C-181.57067446 106.30216489 -172.2925805 106.35359703 -163.01148358 106.47731743 C-156.64163396 106.5568188 -150.27407239 106.56588892 -143.9039 106.52035638 C-140.23005222 106.49615324 -136.56306545 106.50224244 -132.89009094 106.59227943 C-118.47492969 107.49777772 -118.47492969 107.49777772 -105.60666561 102.37578988 C-101.70547759 97.89023373 -99.18013019 92.94809059 -96.91387796 87.48593676 C-95.57972763 84.43068983 -93.86449803 81.89767561 -91.94140625 79.1796875 C-91.08409912 77.91282104 -91.08409912 77.91282104 -90.20947266 76.62036133 C-89.64534668 75.79689209 -89.0812207 74.97342285 -88.5 74.125 C-87.56486572 72.75734497 -87.56486572 72.75734497 -86.61083984 71.36206055 C-80.68067738 62.75979422 -74.42764383 54.43594839 -67.9375 46.25 C-67.12667969 45.22519531 -66.31585937 44.20039062 -65.48046875 43.14453125 C-58.00002813 33.85620831 -50.27220807 24.72780378 -40.9375 17.25 C-40.03257812 16.51910156 -39.12765625 15.78820312 -38.1953125 15.03515625 C-26.49832904 5.9054328 -15.01173685 -0.18878663 0 0 Z " fill="#020202" transform="translate(637.9375,43.75)"/>
<path d="M0 0 C3.99261376 0.00686906 7.98475488 -0.02030562 11.97729492 -0.0456543 C36.88113651 -0.10708587 61.41007898 1.68025409 85.7253418 7.31567383 C80.82048342 17.52548478 75.4723795 27.41964382 69.85961914 37.25708008 C65.87453539 44.25238034 61.98538238 51.29279719 58.1628418 58.37817383 C57.62949219 59.36640137 57.09614258 60.35462891 56.54663086 61.37280273 C55.47528197 63.3592486 54.40431679 65.34590146 53.33374023 67.33276367 C50.66064905 72.29023605 47.9771678 77.24199267 45.2878418 82.19067383 C44.81596436 83.06344971 44.34408691 83.93622559 43.85791016 84.83544922 C42.95038672 86.50409023 42.03352848 88.16769354 41.10668945 89.82568359 C40.14562095 91.55808685 39.21507288 93.30762886 38.30883789 95.06933594 C35.9917346 99.35268898 34.60420049 101.83566655 30.2565918 104.21020508 C28.92388271 104.56117542 27.57801125 104.86439543 26.2253418 105.12817383 C25.45818848 105.30791748 24.69103516 105.48766113 23.90063477 105.67285156 C21.1845226 106.27984359 18.46093478 106.80371803 15.7253418 107.31567383 C14.6725 107.51999023 13.6196582 107.72430664 12.53491211 107.93481445 C-7.02581475 111.65905983 -26.75159918 113.95744184 -46.5534668 115.9387207 C-48.72471439 116.158666 -50.89503678 116.38913256 -53.06225586 116.64575195 C-62.42912221 117.68671709 -71.86451253 117.3986232 -81.2746582 117.31567383 C-81.91206099 25.54990738 -81.91206099 25.54990738 -71.88012695 13.66333008 C-54.56057922 -2.89769732 -21.78774014 -0.04052501 0 0 Z " fill="#FDFDFD" transform="translate(431.274658203125,163.684326171875)"/>
<path d="M0 0 C-0.61449268 4.63010502 -2.54005741 8.39480441 -4.68359375 12.4765625 C-5.05441071 13.19453506 -5.42522766 13.91250763 -5.80728149 14.65223694 C-7.01131555 16.97967959 -8.22420609 19.30237305 -9.4375 21.625 C-10.27382927 23.23648956 -11.10968371 24.84822563 -11.94506836 26.46020508 C-13.95032468 30.32556708 -15.962788 34.18710599 -17.97937012 38.04656982 C-18.83914826 39.69213851 -19.69756322 41.33841933 -20.55566406 42.98486328 C-24.2783801 50.1241415 -28.05856689 57.23245284 -31.84249878 64.33943176 C-33.64551153 67.72601527 -35.44785891 71.11295258 -37.25 74.5 C-37.79346069 75.52110367 -37.79346069 75.52110367 -38.34790039 76.56283569 C-45.66840356 90.32222472 -52.86155039 104.14533175 -60 118 C-63.79164893 118.02994619 -67.5832663 118.04710433 -71.375 118.0625 C-72.93734375 118.07506836 -72.93734375 118.07506836 -74.53125 118.08789062 C-84.09317211 118.1166916 -93.39623373 117.53354257 -103 117 C-103 100.5 -103 84 -103 67 C-103.66 67 -104.32 67 -105 67 C-105 66.34 -105 65.68 -105 65 C-104.34 65 -103.68 65 -103 65 C-103 45.2 -103 25.4 -103 5 C-98.36710937 4.97421875 -93.73421875 4.9484375 -88.9609375 4.921875 C-85.95307644 4.89658727 -82.94530446 4.87016445 -79.9375 4.83984375 C-75.20605664 4.79224971 -70.47482036 4.74794307 -65.74316406 4.72900391 C-45.73932585 4.64347489 -26.39905126 3.55964607 -6.63076782 0.35528564 C-4 0 -4 0 0 0 Z " fill="#FBFBFB" transform="translate(453,286)"/>
<path d="M0 0 C5.66042353 3.37515937 7.89221713 7.65326962 9.8605957 13.74633789 C10.95428567 18.13571369 10.98706448 22.43347659 10.9375 26.9375 C10.93065186 27.90099365 10.92380371 28.8644873 10.91674805 29.85717773 C10.73098889 38.20103361 9.29771774 45.4163098 6.5 53.3125 C6.149375 54.33601563 5.79875 55.35953125 5.4375 56.4140625 C1.71479777 66.62564152 -3.04299943 76.40805428 -7.5 86.3125 C-35.88 86.3125 -64.26 86.3125 -93.5 86.3125 C-92.0884488 82.78362201 -90.86386187 80.05673699 -88.91796875 76.8984375 C-88.40476074 76.06449463 -87.89155273 75.23055176 -87.36279297 74.37133789 C-86.80994629 73.48567139 -86.25709961 72.60000488 -85.6875 71.6875 C-85.1114502 70.76251709 -84.53540039 69.83753418 -83.94189453 68.88452148 C-31.56682779 -14.6011357 -31.56682779 -14.6011357 0 0 Z " fill="#FDFDFD" transform="translate(651.5,61.6875)"/>
<path d="M0 0 C6.20511676 0.56993036 11.6896972 1.93914686 17.5625 4 C18.86815918 4.45705322 18.86815918 4.45705322 20.20019531 4.92333984 C28.49065675 7.95891951 35.65846281 12.15693909 43 17 C44.64326623 18.02496056 46.28857411 19.04666957 47.9375 20.0625 C48.948125 20.701875 49.95875 21.34125 51 22 C46.02747128 34.62033606 25.85162249 44.11251625 15 51 C14.26233398 51.46825195 13.52466797 51.93650391 12.76464844 52.41894531 C-3.11376292 62.37734944 -20.28656278 70.84619552 -38 77 C-36.61389848 72.5442216 -34.87252555 68.44459215 -32.83203125 64.25 C-32.52023926 63.60691391 -32.20844727 62.96382782 -31.88720703 62.30125427 C-30.86629792 60.19886592 -29.83972619 58.09930825 -28.8125 56 C-28.09781429 54.53397752 -27.38321587 53.06791248 -26.66870117 51.60180664 C-24.45405804 47.06380406 -22.22883809 42.53104497 -20 38 C-19.64373535 37.27544617 -19.2874707 36.55089233 -18.92041016 35.80438232 C-16.87978958 31.65705342 -14.83209079 27.51332859 -12.77474976 23.37426758 C-12.14042181 22.09752441 -11.50727587 20.82019321 -10.87539673 19.54223633 C-7.54176099 12.80745665 -4.12524793 6.28498226 0 0 Z " fill="#FCFCFC" transform="translate(543,176)"/>
<path d="M0 0 C0 2.97 0 5.94 0 9 C-23.57939482 20.63096219 -51.64886572 31.72074575 -78 23 C-81.62004925 20.8879476 -83.66821015 19.49768477 -86 16 C-86.77730754 11.31979042 -86.79672092 6.50065264 -84.375 2.3125 C-79.37911556 -3.69683529 -70.34126352 -7.73310431 -62.67578125 -8.68359375 C-40.95338623 -10.48111848 -20.21185192 -8.34753349 0 0 Z " fill="#FCFCFC" transform="translate(282,541)"/>
<path d="M0 0 C1.24394531 0.00322266 2.48789062 0.00644531 3.76953125 0.00976562 C5.05472656 0.01814453 6.33992188 0.02652344 7.6640625 0.03515625 C8.97246094 0.03966797 10.28085937 0.04417969 11.62890625 0.04882812 C14.84900531 0.06058031 18.0690102 0.07701082 21.2890625 0.09765625 C20.08050449 4.01713122 18.69193635 7.42800149 16.59375 10.94921875 C16.05008789 11.87017334 15.50642578 12.79112793 14.94628906 13.73999023 C14.3581543 14.72427002 13.77001953 15.7085498 13.1640625 16.72265625 C11.90479916 18.85070464 10.64705241 20.97965101 9.390625 23.109375 C8.72708008 24.2339209 8.06353516 25.3584668 7.37988281 26.51708984 C5.17353468 30.27902932 3.02074444 34.07043959 0.875 37.8671875 C0.51191742 38.50851624 0.14883484 39.14984497 -0.22525024 39.81060791 C-1.66043223 42.34654183 -3.09513891 44.88267174 -4.52008057 47.42437744 C-5.51130908 49.19180235 -6.50940474 50.95537066 -7.5078125 52.71875 C-8.07854492 53.73380615 -8.64927734 54.7488623 -9.23730469 55.79467773 C-10.7109375 58.09765625 -10.7109375 58.09765625 -12.7109375 59.09765625 C-12.7109375 58.43765625 -12.7109375 57.77765625 -12.7109375 57.09765625 C-13.3709375 57.09765625 -14.0309375 57.09765625 -14.7109375 57.09765625 C-14.7109375 56.43765625 -14.7109375 55.77765625 -14.7109375 55.09765625 C-14.0509375 55.09765625 -13.3909375 55.09765625 -12.7109375 55.09765625 C-12.7109375 37.27765625 -12.7109375 19.45765625 -12.7109375 1.09765625 C-8.19620324 0.34520054 -4.50355071 -0.02065849 0 0 Z " fill="#F3F3F3" transform="translate(362.7109375,418.90234375)"/>
</svg>
